<svg width="33" height="33" viewBox="0 0 33 33" fill="none" xmlns="http://www.w3.org/2000/svg">
<rect x="0.978271" y="0.40625" width="31.9782" height="31.9782" rx="15.9891" fill="#283991"/>
<path d="M25.2998 8.5106L24.6883 9.27252L25.3258 10.0243L24.3372 9.84785L23.9812 10.7428L23.6543 9.84738L22.6853 9.99961L23.321 9.25558L22.7085 8.5106L23.6722 8.68174L24.0282 7.76758L24.3556 8.68174L25.2998 8.5106Z" fill="white"/>
<path d="M11.9437 24.916L13.0219 23.5719L11.3562 23.8736L10.7783 22.2601L10.1502 23.8736L8.44959 23.5719L9.53036 24.8864L8.4082 26.1995L10.1186 25.9309L10.6955 27.511L11.3238 25.9316L13.0683 26.2434L11.9437 24.916Z" fill="white"/>
<path d="M24.6883 26.1033L25.2998 25.3416L24.3556 25.5125L24.0282 24.5984L23.6722 25.5125L22.7085 25.3416L23.321 26.0861L22.6853 26.8306L23.6543 26.6782L23.9812 27.5732L24.3372 26.6786L25.3258 26.8554L24.6883 26.1033Z" fill="white"/>
<path d="M28.6439 13.6264L29.2549 12.8645L28.3112 13.0357L27.9837 12.1215L27.6278 13.0357L26.6636 12.8645L27.2761 13.6095L26.6404 14.3538L27.6094 14.2013L27.9362 15.0968L28.2922 14.2018L29.2809 14.3783L28.6439 13.6264Z" fill="white"/>
<path d="M21.8782 14.8004L21.2667 15.5621L21.9045 16.3141L20.9158 16.1377L20.5598 17.0319L20.2329 16.1371L19.2639 16.2894L19.8994 15.5449L19.2871 14.8004L20.2506 14.9716L20.6065 14.0574L20.934 14.9716L21.8782 14.8004Z" fill="white"/>
<path d="M11.7986 1.2645C12.0604 1.17539 12.325 1.09262 12.5928 1.0166V5.43969L16.9675 1.06609V1.43442L11.7986 6.60303V1.2645Z" fill="white"/>
<path d="M3.61921 7.59496H5.33317L4.3359 6.59723C4.38917 6.52836 4.44297 6.45944 4.49772 6.39125L6.49624 8.38923H3.12915C3.28544 8.11959 3.44807 7.85427 3.61921 7.59496Z" fill="white"/>
<path d="M16.9675 14.9209V15.3872L13.4863 11.906H16.9675V12.701H14.7476L16.9675 14.9209Z" fill="white"/>
<path d="M7.48731 14.8542V16.395H8.28184V13.6912L5.57825 16.395H5.94658L7.48731 14.8542Z" fill="white"/>
<path d="M8.25403 11.9063H1.62166C1.54517 12.1685 1.47523 12.4334 1.41211 12.701L5.33253 12.701L1.63786 16.395H3.76512L8.25403 11.9063Z" fill="white"/>
<path d="M16.9675 8.3895V7.59496H14.7462L16.9675 5.37407V3.24735L11.8252 8.3895H16.9675Z" fill="white"/>
<path d="M7.4873 5.44023L6.42522 4.37862C6.04858 4.70963 5.687 5.05798 5.3429 5.42308L7.4873 7.56749L7.51005 7.59071L8.28183 8.36249V2.97319C8.01172 3.14865 7.74587 3.32965 7.48757 3.5205L7.4873 5.44023Z" fill="white"/>
<path d="M14.1331 16.395L12.5929 14.8547V16.395H11.7983V12.0312L16.1624 16.395H14.1331Z" fill="white"/>
<path d="M14.2807 12.7009L13.4865 11.9061H16.9676V8.38937H11.8253L11.7988 8.41638V8.38937H11.8253L16.9676 3.2475V1.4343L11.7985 6.60318V1.26465C10.5491 1.69159 9.37008 2.26765 8.28174 2.97327V8.3623L8.30929 8.38931H8.28174V8.3623L7.50996 7.59059L7.51448 7.59511H7.48748V7.56757L5.34308 5.42316C5.04873 5.73472 4.76674 6.05736 4.49784 6.3916L6.49629 8.38958H3.12927C2.49305 9.48629 1.98436 10.6648 1.62183 11.9063H8.2542L8.28174 11.8783V11.9063H8.2542L7.48748 12.6731V12.7011H7.45946L3.76522 16.3949H5.57842L8.28201 13.691V16.3949H11.7988V12.0311L16.1626 16.3949H16.7627C16.8311 16.3235 16.9008 16.2525 16.9679 16.1791V15.387L14.2807 12.7009Z" fill="#F44336"/>
</svg>
