<svg width="37" height="41" viewBox="0 0 37 41" fill="none" xmlns="http://www.w3.org/2000/svg">
<path d="M33.9995 35.0002H27.9495C27.4495 29.9502 23.1795 26.0002 17.9995 26.0002C17.4895 26.0002 16.9895 26.0502 16.4895 26.1302L11.7595 18.6402C11.7795 18.5602 11.8095 18.4702 11.8295 18.3802L17.7295 16.6102C18.0195 17.0402 18.3395 17.4502 18.6995 17.8302C20.5795 19.8402 23.2395 20.9902 25.9995 20.9902H30.9995C32.0995 20.9902 32.9995 20.0902 32.9995 18.9902V16.9902C32.9995 15.8902 32.0995 14.9902 30.9995 14.9902H25.9995C24.7795 14.9902 23.6395 14.4302 22.8695 13.4702C22.1095 12.5102 21.8295 11.2702 22.1095 10.0602C22.5195 8.28024 24.2195 6.99023 26.1495 6.99023H31.0095C32.1095 6.99023 33.0095 6.09023 33.0095 4.99023V2.99023C33.0095 1.89023 32.1095 0.990234 31.0095 0.990234H26.3195C20.8895 0.990234 16.3695 5.09023 16.0295 10.3302C16.0195 10.5102 16.0295 10.6802 16.0295 10.8602L10.1195 12.6302C9.04953 11.6202 7.59953 10.9902 6.01953 10.9902C2.70953 10.9902 0.0195312 13.6802 0.0195312 16.9902C0.0195312 19.9602 2.18953 22.4202 5.01953 22.9002L9.74953 30.3802C8.83953 31.7202 8.23953 33.2902 8.06953 34.9902H3.01953C1.91953 34.9902 1.01953 35.8902 1.01953 36.9902V38.9902C1.01953 40.0902 1.91953 40.9902 3.01953 40.9902H34.0195C35.1195 40.9902 36.0195 40.0902 36.0195 38.9902V36.9902C36.0195 35.8902 35.1195 34.9902 34.0195 34.9902L33.9995 35.0002ZM14.4595 26.6602C13.1895 27.1402 12.0395 27.8702 11.0795 28.8002L7.31953 22.8502C8.67953 22.5402 9.85953 21.7702 10.6995 20.7102L14.4595 26.6602ZM11.9495 16.2602C11.8695 15.5802 11.6695 14.9402 11.3695 14.3402L16.1895 12.9002C16.3195 13.5602 16.5095 14.2002 16.7595 14.8202L11.9495 16.2602ZM18.0195 10.4702C18.2895 6.28023 21.9295 3.01023 26.3095 3.01023H30.9995V5.01023H26.1395C23.2895 5.01023 20.7695 6.95023 20.1495 9.62023C19.7295 11.4302 20.1495 13.2902 21.2995 14.7302C22.4495 16.1802 24.1595 17.0102 25.9995 17.0102H30.9995V19.0102H25.9995C23.7595 19.0102 21.6895 18.1102 20.1595 16.4802C18.6295 14.8502 17.8695 12.7202 18.0195 10.4802V10.4702ZM1.99953 17.0002C1.99953 14.7902 3.78953 13.0002 5.99953 13.0002C8.20953 13.0002 9.99953 14.7902 9.99953 17.0002C9.99953 19.2102 8.20953 21.0002 5.99953 21.0002C3.78953 21.0002 1.99953 19.2102 1.99953 17.0002ZM17.9995 28.0002C22.0695 28.0002 25.4395 31.0602 25.9295 35.0002H22.8995C22.4395 32.7202 20.4195 31.0002 17.9995 31.0002C15.5795 31.0002 13.5695 32.7202 13.0995 35.0002H10.0695C10.5595 31.0602 13.9295 28.0002 17.9995 28.0002ZM20.8195 35.0002H15.1895C15.5995 33.8402 16.6995 33.0002 18.0095 33.0002C19.3195 33.0002 20.4095 33.8402 20.8295 35.0002H20.8195ZM33.9995 39.0002H2.99953V37.0002H33.9995V39.0002Z" fill="#414652"/>
</svg>
