<svg xmlns="http://www.w3.org/2000/svg" width="72" height="72"><defs><linearGradient id="a" x1="0%" x2="100%" y1="93.112%" y2="6.888%"><stop offset="0%" stop-color="#FF444F"/><stop offset="100%" stop-color="#FF6444"/></linearGradient></defs><g fill="none" fill-rule="evenodd"><circle cx="36" cy="36" r="36" fill="#F5F7FA"/><path d="M42 4.5c.511 0 1.013.043 1.5.125V6.15a7.5 7.5 0 1 0 0 14.7v1.525A9.001 9.001 0 0 1 33.125 15H19.35a7.476 7.476 0 0 1-1.292 2.923l5.643 10.58L24 28.5c7.456 0 13.5 6.044 13.5 13.5h6.75a.75.75 0 0 1 0 1.5H3.75a.75.75 0 0 1 0-1.5h6.75c0-3.912 1.664-7.435 4.322-9.9l-6.34-11.975A7.5 7.5 0 1 1 18.876 10.5h14.636A9.005 9.005 0 0 1 42 4.5zm-18 36a1.5 1.5 0 0 0-1.5 1.5h3a1.5 1.5 0 0 0-1.5-1.5zM24 30c-6.627 0-12 5.373-12 12h9a3 3 0 1 1 6 0h9c0-6.627-5.373-12-12-12zm-12-9c-.49 0-.967-.047-1.43-.136L16 31.124a13.422 13.422 0 0 1 6.072-2.488l-5.085-9.535A7.468 7.468 0 0 1 12 21zm0-13.5a6 6 0 1 0 0 12 6 6 0 0 0 0-12zM33.124 12H19.35c.098.485.15.986.15 1.5H33c0-.511.043-1.012.124-1.5z" fill="url(#a)" transform="translate(12 12)"/></g></svg>