<svg xmlns="http://www.w3.org/2000/svg" width="12" height="18" viewBox="0 0 12 18" role="img" id="selected_downloadable_icon_id"><g><path d="M10.875 9.5q0-1.336-.656-2.437A4.87 4.87 0 0 0 8.438 5.28 4.84 4.84 0 0 0 6 4.625q-1.29 0-2.437.656A4.87 4.87 0 0 0 1.78 7.063 4.67 4.67 0 0 0 1.125 9.5q0 1.335.656 2.438a4.87 4.87 0 0 0 1.782 1.78A4.84 4.84 0 0 0 6 14.376q1.29 0 2.438-.656a4.87 4.87 0 0 0 1.78-1.781 4.7 4.7 0 0 0 .657-2.438M0 9.5a6.14 6.14 0 0 1 .797-3A6.2 6.2 0 0 1 3 4.297 6.1 6.1 0 0 1 6 3.5q1.57 0 3 .797A6.2 6.2 0 0 1 11.203 6.5q.774 1.359.797 3a6.14 6.14 0 0 1-.797 3A6.2 6.2 0 0 1 9 14.703a6.1 6.1 0 0 1-3 .797 6.1 6.1 0 0 1-3-.797A6.2 6.2 0 0 1 .797 12.5 6.14 6.14 0 0 1 0 9.5m6-2.25q.609 0 1.125.305.516.304.82.82.305.54.305 1.125a2.26 2.26 0 0 1-1.125 1.945A2.17 2.17 0 0 1 6 11.75q-.609 0-1.125-.305A2.255 2.255 0 0 1 3.75 9.5a2.26 2.26 0 0 1 1.125-1.945A2.17 2.17 0 0 1 6 7.25"></path></g><defs><clipPath id="2d8156a41e3ae7a0243e432585a6c384__a"><path d="M0 0h12v18H0z"></path></clipPath></defs></svg>