<svg xmlns="http://www.w3.org/2000/svg" viewBox="0 0 32 32" width="96" height="96" role="img" id="selected_downloadable_icon_id" fill="#000000"><path d="M16 7.75q-2.383.04-4.375 1.172a9 9 0 0 0-3.203 3.203Q7.25 14.195 7.25 16.5t1.172 4.375a9 9 0 0 0 3.203 3.203Q13.617 25.211 16 25.25q2.383-.04 4.375-1.172a9 9 0 0 0 3.203-3.203q1.172-2.07 1.172-4.375t-1.172-4.375a9 9 0 0 0-3.203-3.203Q18.383 7.789 16 7.75m0 18.75q-2.735-.04-5-1.328-2.265-1.329-3.672-3.672Q6 19.118 6 16.5t1.328-5Q8.735 9.157 11 7.828q2.265-1.29 5-1.328 2.735.04 5 1.328 2.265 1.329 3.672 3.672Q26 13.882 26 16.5t-1.328 5Q23.265 23.844 21 25.172q-2.265 1.29-5 1.328m4.18-12.07-5 5q-.43.39-.86 0l-2.5-2.5q-.39-.43 0-.86.43-.39.86 0l2.07 2.032 4.57-4.532q.43-.39.86 0 .39.43 0 .86"></path></svg>