<svg xmlns="http://www.w3.org/2000/svg" width="12" height="18" viewBox="0 0 12 18" role="img" id="selected_downloadable_icon_id"><g><path d="M6 15.5a6.14 6.14 0 0 1-3-.797A6.2 6.2 0 0 1 .797 12.5 6.1 6.1 0 0 1 0 9.5q0-1.57.797-3A6.2 6.2 0 0 1 3 4.297 6.14 6.14 0 0 1 6 3.5a6.14 6.14 0 0 1 3 .797A6.2 6.2 0 0 1 11.203 6.5Q12 7.93 12 9.5a6.1 6.1 0 0 1-.797 3A6.2 6.2 0 0 1 9 14.703a6.14 6.14 0 0 1-3 .797m0-8.25q-.609 0-1.125.305A2.255 2.255 0 0 0 3.75 9.5a2.26 2.26 0 0 0 1.125 1.945q.516.305 1.125.305t1.125-.305.82-.82q.305-.54.305-1.125a2.26 2.26 0 0 0-1.125-1.945A2.17 2.17 0 0 0 6 7.25"></path></g><defs><clipPath id="b9f3465f85d580a20bc27dfd6a478a8c__a"><path d="M0 0h12v18H0z"></path></clipPath></defs></svg>