<svg width="13" height="14" fill="none" xmlns="http://www.w3.org/2000/svg"><path fill-rule="evenodd" clip-rule="evenodd" d="M.33 4.5A1.5 1.5 0 0 1 1.83 3h6a1.5 1.5 0 0 1 1.5 1.5v8a1.5 1.5 0 0 1-1.5 1.5h-6a1.5 1.5 0 0 1-1.5-1.5v-8Zm1.5-.5a.5.5 0 0 0-.5.5v8a.5.5 0 0 0 .5.5h6a.5.5 0 0 0 .5-.5v-8a.5.5 0 0 0-.5-.5h-6Z" fill="#333"/><path fill-rule="evenodd" clip-rule="evenodd" d="M2.33 6.5a.5.5 0 0 1 .5-.5h4a.5.5 0 0 1 0 1h-4a.5.5 0 0 1-.5-.5ZM2.33 8.5a.5.5 0 0 1 .5-.5h4a.5.5 0 0 1 0 1h-4a.5.5 0 0 1-.5-.5ZM2.33 10.5a.5.5 0 0 1 .5-.5h4a.5.5 0 0 1 0 1h-4a.5.5 0 0 1-.5-.5Z" fill="#333"/><path fill-rule="evenodd" clip-rule="evenodd" d="M3.33 1.5A1.5 1.5 0 0 1 4.83 0h6a1.5 1.5 0 0 1 1.5 1.5v8a1.5 1.5 0 0 1-1.5 1.5h-1.5v-1h1.5a.5.5 0 0 0 .5-.5v-8a.5.5 0 0 0-.5-.5h-6a.5.5 0 0 0-.5.5V3h-1V1.5Z" fill="#333"/></svg>