<svg width="14" height="14" viewBox="0 0 14 14" fill="none" xmlns="http://www.w3.org/2000/svg">
<path d="M9.5 0C10.3284 0 11 0.671573 11 1.5V2H13.5C13.7761 2 14 2.22386 14 2.5C14 2.77614 13.7761 3 13.5 3H13V12.5C13 13.3284 12.3284 14 11.5 14H2.5C1.67157 14 1 13.3284 1 12.5V3H0.5C0.223858 3 0 2.77614 0 2.5C0 2.22386 0.223858 2 0.5 2H3V1.5C3 0.671573 3.67157 0 4.5 0H9.5ZM12 3H2V12.5C2 12.7761 2.22386 13 2.5 13H11.5C11.7761 13 12 12.7761 12 12.5V3ZM7 5C7.27614 5 7.5 5.22386 7.5 5.5V10.5C7.5 10.7761 7.27614 11 7 11C6.72386 11 6.5 10.7761 6.5 10.5V5.5C6.5 5.22386 6.72386 5 7 5ZM9.5 5C9.77614 5 10 5.22386 10 5.5V10.5C10 10.7761 9.77614 11 9.5 11C9.22386 11 9 10.7761 9 10.5V5.5C9 5.22386 9.22386 5 9.5 5ZM4.5 5C4.77614 5 5 5.22386 5 5.5V10.5C5 10.7761 4.77614 11 4.5 11C4.22386 11 4 10.7761 4 10.5V5.5C4 5.22386 4.22386 5 4.5 5ZM9.5 1H4.5C4.22386 1 4 1.22386 4 1.5V2H10V1.5C10 1.22386 9.77614 1 9.5 1Z" fill="#333333"/>
</svg>
