<svg xmlns="http://www.w3.org/2000/svg" width="16" height="18" fill="none"><path fill="#414652" d="M5.188 14.063c0 .309-.254.562-.563.562a.564.564 0 0 1-.563-.563V6.189c0-.31.254-.563.563-.563.31 0 .563.253.563.563v7.875Zm3.375 0c0 .309-.254.562-.563.562a.564.564 0 0 1-.563-.563V6.189c0-.31.254-.563.563-.563.31 0 .563.253.563.563v7.875Zm3.374 0c0 .309-.253.562-.562.562a.564.564 0 0 1-.563-.563V6.189c0-.31.254-.563.563-.563.31 0 .563.253.563.563v7.875Zm-.91-13.27.942 1.457h3.344a.563.563 0 0 1 0 1.125h-.563v11.813A2.812 2.812 0 0 1 11.937 18H4.064a2.812 2.812 0 0 1-2.813-2.813V3.376H.687a.562.562 0 1 1 0-1.125h3.344L4.94.793A1.69 1.69 0 0 1 6.372 0h3.256c.58 0 1.121.3 1.399.793ZM5.36 2.25h5.28l-.538-.86a.558.558 0 0 0-.474-.265H6.372c-.193 0-.372.1-.474.264l-.538.861ZM2.375 15.188c0 .931.756 1.687 1.688 1.687h7.875c.931 0 1.687-.756 1.687-1.688V3.376H2.375v11.813Z"/></svg>