<svg xmlns="http://www.w3.org/2000/svg" width="180" height="73">
    <defs>
        <linearGradient id="a" x1="50%" x2="50%" y1="0%" y2="100%">
            <stop offset="0%" stop-color="#FF6544" />
            <stop offset="100%" stop-color="#FF4449" />
        </linearGradient>
    </defs>
    <g fill="none" fill-rule="evenodd">
        <g fill-rule="nonzero">
            <path fill="url(#a)"
                d="M6.13 0v.03L16.314 13.5 0 26.97V27h16.474c4.807 0 8.979-3.373 10.06-8.136l1.363-6.008a10.63 10.63 0 0 0-1.98-8.894A10.26 10.26 0 0 0 17.84 0H6.13z"
                transform="translate(0 23)" />
            <path fill="#B51A31" d="M16.308 36.527 9.144 50H0z" />
            <path fill="#FFF"
                d="m139.883 23 3.62 18.88L153.67 23h6.254L144.58 50h-5.123l-5.977-27h6.402zm-89.952 0c8.279 0 13.01 5.782 11.702 13.327l-.013.076C60.31 43.95 53.57 49.81 45.282 49.81H35L39.647 23h10.284zm57.22 0c3.352 0 5.784.959 7.203 2.72 1.21 1.492 1.64 3.6 1.197 6.127l-.013.077c-.742 4.326-3.51 7.046-7.082 8.311l4.778 9.574h-6.78l-6.31-13.793h4.364c2.826 0 4.712-1.541 5.103-3.791l.014-.076c.438-2.523-1.07-3.825-3.895-3.825h-5.754l-3.727 21.485h-5.8L95.096 23h12.054zm21.62 0-4.647 26.809h-5.802L122.972 23h5.8zm-39.4 0-.912 5.247H74.336l-.945 5.438h9.118l-.91 5.247h-9.117l-.976 5.625h14.313l-.91 5.247H64.834L69.481 23h19.89zm-40.363 5.324h-4.481l-2.804 16.161h4.484c4.744 0 8.51-3.255 9.334-8.005l.013-.077c.824-4.747-1.799-8.08-6.546-8.08z" />
        </g>
        <path stroke="#FFF" d="M179.5 23v27" />
    </g>
</svg>