<svg xmlns="http://www.w3.org/2000/svg" width="18" height="18" fill="none"><path fill="#414652" d="M17.402 2.095c.77.77.77 2.015 0 2.785L6.41 15.877c-.4.397-.893.689-1.434.85L.72 17.98a.563.563 0 0 1-.698-.7l1.25-4.254c.16-.541.453-1.033.852-1.434L13.12.597a1.97 1.97 0 0 1 2.785 0l1.497 1.498ZM11.988 3.32l2.693 2.661 1.927-1.895a.843.843 0 0 0 0-1.194L15.11 1.392a.847.847 0 0 0-1.195 0L11.988 3.32Zm-.794.794L2.92 12.39a2.23 2.23 0 0 0-.567.956l-.96 3.263 3.262-.96c.362-.105.692-.302.956-.57l8.244-8.272-2.661-2.693Z"/></svg>