<svg width="32" height="33" viewBox="0 0 32 33" fill="none" xmlns="http://www.w3.org/2000/svg">
<rect y="0.40625" width="31.9782" height="31.9782" rx="15.9891" fill="#283991"/>
<path d="M16.3517 4.37989L15.9617 3.17969L15.5716 4.37989H14.3093L15.3308 5.12163L14.9408 6.32183L15.9617 5.57962L16.9829 6.32183L16.5929 5.12163L17.614 4.37989H16.3517Z" fill="#F8D12E"/>
<path d="M16.3517 27.0378L15.9617 25.837L15.5716 27.0378H14.3093L15.3308 27.7795L14.9408 28.9797L15.9617 28.238L16.9829 28.9797L16.5929 27.7795L17.614 27.0378H16.3517Z" fill="#F8D12E"/>
<path d="M22.18 5.18779L22.5698 6.38826H23.8321L22.8108 7.13047L23.2009 8.33068L22.18 7.58847L21.1588 8.33068L21.5488 7.13047L20.5278 6.38826H21.7901L22.18 5.18779Z" fill="#F8D12E"/>
<path d="M26.8125 10.5738L26.4227 9.37358L26.0323 10.5738H24.7703L25.7915 11.3158L25.4014 12.516L26.4227 11.7743L27.4436 12.516L27.0535 11.3158L28.0748 10.5738H26.8125Z" fill="#F8D12E"/>
<path d="M26.5236 19.9492L26.9134 21.1498H28.1757L27.1545 21.8916L27.5448 23.0915L26.5236 22.3501L25.5024 23.0915L25.8924 21.8916L24.8712 21.1498H26.1335L26.5236 19.9492Z" fill="#F8D12E"/>
<path d="M6.04424 10.5738L5.65444 9.37358L5.26463 10.5738H4.00232L5.02328 11.3158L4.63327 12.516L5.65444 11.7743L6.67513 12.516L6.28532 11.3158L7.30629 10.5738H6.04424Z" fill="#F8D12E"/>
<path d="M27.4059 14.4172L27.7957 15.6174H29.058L28.0368 16.3592L28.4268 17.5596L27.4059 16.8182L26.3847 17.5596L26.775 16.3592L25.7535 15.6174H27.0156L27.4059 14.4172Z" fill="#F8D12E"/>
<path d="M5.07985 15.6174L4.69004 14.4172L4.29996 15.6174H3.03772L4.05888 16.3592L3.66881 17.5596L4.69004 16.8182L5.711 17.5596L5.32072 16.3592L6.34189 15.6174H5.07985Z" fill="#F8D12E"/>
<path d="M5.51756 19.9492L5.90736 21.1498H7.1694L6.14851 21.8916L6.53825 23.0915L5.51756 22.3501L4.49639 23.0915L4.8864 21.8916L3.86523 21.1498H5.12755L5.51756 19.9492Z" fill="#F8D12E"/>
<path d="M22.7528 25.5137L22.363 24.3135L21.973 25.5137H20.7107L21.7319 26.2559L21.3416 27.4561L22.363 26.7143L23.384 27.4561L22.9937 26.2559L24.0151 25.5137H22.7528Z" fill="#F8D12E"/>
<path d="M9.94484 5.18779L10.3346 6.38826H11.5969L10.5757 7.13047L10.966 8.33068L9.94484 7.58847L8.92388 8.33068L9.31389 7.13047L8.29272 6.38826H9.55477L9.94484 5.18779Z" fill="#F8D12E"/>
<path d="M9.87428 25.4374L9.48427 24.2367L9.0942 25.4374H7.83215L8.85332 26.1789L8.46331 27.3791L9.48427 26.6378L10.5054 27.3791L10.1154 26.1789L11.1366 25.4374H9.87428Z" fill="#F8D12E"/>
</svg>
