<svg width="40" height="42" viewBox="0 0 40 42" fill="none" xmlns="http://www.w3.org/2000/svg">
<path d="M23 18.44C22.45 18.44 22 17.99 22 17.44V17C22 16.45 22.45 16 23 16C23.55 16 24 16.45 24 17V17.44C24 17.99 23.55 18.44 23 18.44ZM31 26C31.55 26 32 25.55 32 25C32 24.45 31.55 24 31 24H30.56C30.01 24 29.56 24.45 29.56 25C29.56 25.55 30.01 26 30.56 26H31ZM23 31.56C22.45 31.56 22 32.01 22 32.56V33C22 33.55 22.45 34 23 34C23.55 34 24 33.55 24 33V32.56C24 32.01 23.55 31.56 23 31.56ZM14 25C14 25.55 14.45 26 15 26H15.44C15.99 26 16.44 25.55 16.44 25C16.44 24.45 15.99 24 15.44 24H15C14.45 24 14 24.45 14 25ZM12 25C12 24.45 11.55 24 11 24C10.45 24 10 24.45 10 25C10 32.17 15.83 38 23 38C30.17 38 36 32.17 36 25C36 17.83 30.17 12 23 12C20.2 12 17.53 12.88 15.28 14.54C14.84 14.87 14.74 15.49 15.07 15.94C15.4 16.38 16.02 16.48 16.47 16.15C18.37 14.74 20.63 14 23 14C29.07 14 34 18.93 34 25C34 31.07 29.07 36 23 36C16.93 36 12 31.07 12 25ZM40 25C40 34.37 32.37 42 23 42C13.63 42 6 34.37 6 25C6 24.45 6.45 24 7 24C7.55 24 8 24.45 8 25C8 33.27 14.73 40 23 40C31.27 40 38 33.27 38 25C38 16.73 31.27 10 23 10C21.1 10 19.26 10.35 17.51 11.04C17 11.24 16.42 10.99 16.21 10.48C16.01 9.97 16.26 9.39 16.77 9.18C17.51 8.89 18.27 8.67 19.04 8.48C19.02 8.4 18.99 8.32 18.99 8.24V6H16.99C15.34 6 13.99 4.65 13.99 3C13.99 1.35 15.34 0 16.99 0H28.99C30.64 0 31.99 1.35 31.99 3C31.99 4.65 30.64 6 28.99 6H26.99V8.24C26.99 8.33 26.96 8.41 26.94 8.49C34.41 10.28 39.99 17 39.99 25.01L40 25ZM17 4H29C29.55 4 30 3.55 30 3C30 2.45 29.55 2 29 2H17C16.45 2 16 2.45 16 3C16 3.55 16.45 4 17 4ZM23 8C23.68 8 24.34 8.05 25 8.13V6H21V8.13C21.66 8.05 22.33 8 23 8ZM8 14H12C12.55 14 13 13.55 13 13C13 12.45 12.55 12 12 12H8C7.45 12 7 12.45 7 13C7 13.55 7.45 14 8 14ZM12 17C12 16.45 11.55 16 11 16H1C0.45 16 0 16.45 0 17C0 17.55 0.45 18 1 18H11C11.55 18 12 17.55 12 17ZM12 22C12.55 22 13 21.55 13 21C13 20.45 12.55 20 12 20H6C5.45 20 5 20.45 5 21C5 21.55 5.45 22 6 22H12ZM18.76 20.76C18.37 21.15 18.37 21.78 18.76 22.17L21.07 24.48L20.33 24.68C19.8 24.82 19.48 25.37 19.62 25.9C19.74 26.35 20.14 26.64 20.58 26.64C20.67 26.64 20.75 26.63 20.84 26.61L23.26 25.96C23.61 25.87 23.88 25.6 23.97 25.25C24.06 24.91 23.97 24.54 23.71 24.28L20.17 20.74C19.78 20.35 19.15 20.35 18.76 20.74V20.76Z" fill="#414652"/>
</svg>
