<svg width="16" height="12" fill="none" xmlns="http://www.w3.org/2000/svg"><path d="M14.507.118a.5.5 0 0 1 .646.764l-2.048 1.732A7.924 7.924 0 0 1 15.664 6c-1.154 2.927-4 5-7.334 5a7.83 7.83 0 0 1-3.908-1.038l-2.269 1.92a.5.5 0 1 1-.646-.764l2.048-1.733A7.925 7.925 0 0 1 .997 6c1.153-2.927 4-5 7.333-5a7.83 7.83 0 0 1 3.909 1.038l2.268-1.92Zm-2.264 3.226L10.91 4.472c.266.448.42.97.42 1.528 0 1.653-1.348 3-3 3-.737 0-1.412-.267-1.934-.708l-1.106.935c.918.5 1.953.773 3.04.773 2.584 0 4.877-1.55 6-4a7.047 7.047 0 0 0-2.088-2.656ZM8.33 2c-2.578 0-4.877 1.55-6 4a7.05 7.05 0 0 0 2.087 2.656L5.75 7.528A2.98 2.98 0 0 1 5.33 6c0-1.653 1.347-3 3-3 .736 0 1.411.267 1.934.709l1.105-.935A6.336 6.336 0 0 0 8.33 2Zm1.802 3.13L7.175 7.633a2 2 0 0 0 2.957-2.502ZM8.33 4A2 2 0 0 0 6.53 6.87l2.956-2.503A1.99 1.99 0 0 0 8.33 4Z" fill="#333"/></svg>