<svg width="33" height="33" viewBox="0 0 33 33" fill="none" xmlns="http://www.w3.org/2000/svg">
<rect x="0.956543" y="0.40625" width="32" height="32" rx="16" fill="white"/>
<path fill-rule="evenodd" clip-rule="evenodd" d="M21.1305 0.957031C23.1779 1.50891 25.0626 2.45659 26.6977 3.71341L21.1305 9.28059V0.957031ZM1.50781 12.232C2.05963 10.1846 3.00731 8.2999 4.26412 6.66471L9.83144 12.232H1.50781ZM29.6491 6.66477C30.9058 8.29996 31.8536 10.1846 32.4054 12.232H24.0819L29.6491 6.66477ZM1.50781 20.5798C2.05969 22.6272 3.00737 24.5119 4.26412 26.147L9.83125 20.5798H1.50781ZM7.21545 29.0983C8.85064 30.3551 10.7353 31.3028 12.7827 31.8547V23.5312L7.21545 29.0983ZM7.21545 3.71334C8.85058 2.45659 10.7353 1.50891 12.7826 0.957031V9.28053L7.21545 3.71334ZM21.1306 31.8547C23.1779 31.3028 25.0626 30.3551 26.6977 29.0983L21.1306 23.5312V31.8547ZM29.6491 26.1471L24.0819 20.5798H32.4054C31.8536 22.6272 30.9058 24.512 29.6491 26.1471Z" fill="#283991"/>
<path fill-rule="evenodd" clip-rule="evenodd" d="M32.8211 14.3193H19.0436H19.0435V0.541688C18.3604 0.45275 17.6639 0.40625 16.9565 0.40625C16.2491 0.40625 15.5527 0.45275 14.8696 0.541688V14.3192V14.3193H1.09198C1.00304 15.0024 0.956543 15.6989 0.956543 16.4062C0.956543 17.1137 1.00304 17.8101 1.09198 18.4932H14.8695H14.8695V32.2708C15.5527 32.3598 16.2491 32.4062 16.9565 32.4062C17.6639 32.4062 18.3604 32.3598 19.0435 32.2708V18.4933V18.4932H32.8211C32.91 17.8101 32.9565 17.1137 32.9565 16.4062C32.9565 15.6989 32.91 15.0024 32.8211 14.3193ZM21.1305 20.5802L28.2702 27.72C28.5986 27.3917 28.9119 27.0486 29.2107 26.6928L23.0981 20.5802H21.1305ZM12.7825 20.5802H12.7826V22.5477L6.67001 28.6604C6.31426 28.3616 5.97107 28.0483 5.64282 27.7199L12.7825 20.5802ZM12.7868 12.2324V12.2323L5.64704 5.0925C5.31867 5.42075 5.00542 5.76394 4.70654 6.11969L10.8192 12.2324H12.7868ZM28.2703 5.09256L21.1305 12.2324V10.2648L27.2431 4.15212C27.5989 4.45093 27.9421 4.76419 28.2703 5.09256Z" fill="#F44336"/>
</svg>
