<svg xmlns="http://www.w3.org/2000/svg" width="32" height="32"><g fill="none" fill-rule="evenodd"><path d="M0 0h32v32H0z"/><path fill="#333" fill-rule="nonzero" d="M14 21h4v5h7a1 1 0 0 1 1 1v2a1 1 0 0 1-1 1H7a1 1 0 0 1-1-1v-2a1 1 0 0 1 1-1h7v-5z"/><rect width="32" height="21" y="2" fill="#85ACB0" fill-rule="nonzero" rx="2"/><path fill="#FFF" fill-opacity=".56" fill-rule="nonzero" d="M7.086 7.586a2 2 0 0 1 2.945 2.701l-.117.127-1.973 1.973 1.86 1.594c.797.683.925 1.857.32 2.692l-.102.129a2.001 2.001 0 0 1-2.692.318l-.129-.101-3.5-3a2 2 0 0 1-.224-2.812l.112-.121 3.5-3.5zM24.915 7.586a2 2 0 0 0-2.945 2.701l.117.127 1.973 1.973-1.86 1.594a2.002 2.002 0 0 0-.32 2.692l.102.129a2.001 2.001 0 0 0 2.692.318l.128-.101 3.5-3a2 2 0 0 0 .225-2.812l-.112-.121-3.5-3.5zM15.603 7.368a2 2 0 0 1 3.839 1.115l-.044.15-3 9a2 2 0 0 1-3.838-1.115l.043-.15 3-9z"/></g></svg>