<svg width="48" height="48" viewBox="0 0 48 48" fill="none" xmlns="http://www.w3.org/2000/svg">
    <path fill-rule="evenodd" clip-rule="evenodd" d="M9 26C9.55228 26 10 26.4477 10 27V42C10 42.5477 10.4523 43 11 43H34C34.5477 43 35 42.5477 35 42V41C35 40.4523 34.5477 40 34 40H32C31.4477 40 31 39.5523 31 39V27C31 26.4477 31.4477 26 32 26C32.5523 26 33 26.4477 33 27V38H34C35.6523 38 37 39.3477 37 41V42C37 43.6523 35.6523 45 34 45H11C9.34772 45 8 43.6523 8 42V27C8 26.4477 8.44772 26 9 26Z" fill="#414652"/>
    <path fill-rule="evenodd" clip-rule="evenodd" d="M15 40C14.4523 40 14 40.4523 14 41V42C14 43.6523 12.6523 45 11 45C10.4477 45 10 44.5523 10 44C10 43.4477 10.4477 43 11 43C11.5477 43 12 42.5477 12 42V41C12 39.3477 13.3477 38 15 38H32C32.5523 38 33 38.4477 33 39C33 39.5523 32.5523 40 32 40H15Z" fill="#414652"/>
    <path fill-rule="evenodd" clip-rule="evenodd" d="M7 15C6.45228 15 6 15.4523 6 16V23C6 23.5477 6.45228 24 7 24H9C9.55228 24 10 24.4477 10 25V28C10 28.5523 9.55228 29 9 29C8.44772 29 8 28.5523 8 28V26H7C5.34772 26 4 24.6523 4 23V16C4 14.3477 5.34772 13 7 13H30C31.6523 13 33 14.3477 33 16V28C33 28.5523 32.5523 29 32 29C31.4477 29 31 28.5523 31 28V16C31 15.4523 30.5477 15 30 15H7Z" fill="#414652"/>
    <path fill-rule="evenodd" clip-rule="evenodd" d="M6 14C6 13.4477 6.44772 13 7 13C8.65228 13 10 14.3477 10 16V25C10 25.5523 9.55228 26 9 26H7.34721L7.34694 24H7.99919L8 16C8 15.4523 7.54772 15 7 15C6.44772 15 6 14.5523 6 14Z" fill="#414652"/>
    <path fill-rule="evenodd" clip-rule="evenodd" d="M17 21C17 20.4477 17.4477 20 18 20H27C27.5523 20 28 20.4477 28 21C28 21.5523 27.5523 22 27 22H18C17.4477 22 17 21.5523 17 21Z" fill="#414652"/>
    <path fill-rule="evenodd" clip-rule="evenodd" d="M17 25C17 24.4477 17.4477 24 18 24H27C27.5523 24 28 24.4477 28 25C28 25.5523 27.5523 26 27 26H18C17.4477 26 17 25.5523 17 25Z" fill="#414652"/>
    <path fill-rule="evenodd" clip-rule="evenodd" d="M17 29C17 28.4477 17.4477 28 18 28H27C27.5523 28 28 28.4477 28 29C28 29.5523 27.5523 30 27 30H18C17.4477 30 17 29.5523 17 29Z" fill="#414652"/>
    <path fill-rule="evenodd" clip-rule="evenodd" d="M17 33C17 32.4477 17.4477 32 18 32H27C27.5523 32 28 32.4477 28 33C28 33.5523 27.5523 34 27 34H18C17.4477 34 17 33.5523 17 33Z" fill="#414652"/>
    <path d="M14 20C13.45 20 13 20.45 13 21C13 21.55 13.45 22 14 22C14.55 22 15 21.55 15 21C15 20.45 14.55 20 14 20Z" fill="#414652"/>
    <path d="M14 24C13.45 24 13 24.45 13 25C13 25.55 13.45 26 14 26C14.55 26 15 25.55 15 25C15 24.45 14.55 24 14 24Z" fill="#414652"/>
    <path d="M14 28C13.45 28 13 28.45 13 29C13 29.55 13.45 30 14 30C14.55 30 15 29.55 15 29C15 28.45 14.55 28 14 28Z" fill="#414652"/>
    <path d="M14 32C13.45 32 13 32.45 13 33C13 33.55 13.45 34 14 34C14.55 34 15 33.55 15 33C15 32.45 14.55 32 14 32Z" fill="#414652"/>
    <path d="M39.5 4C41.98 4 44 6.02 44 8.5C44 10.98 41.98 13 39.5 13C37.02 13 35 10.98 35 8.5C35 6.02 37.02 4 39.5 4ZM39.5 2C35.91 2 33 4.91 33 8.5C33 12.09 35.91 15 39.5 15C43.09 15 46 12.09 46 8.5C46 4.91 43.09 2 39.5 2Z" fill="#414652"/>
    <path fill-rule="evenodd" clip-rule="evenodd" d="M40.2929 7.29289C40.6834 6.90237 41.3166 6.90237 41.7071 7.29289C42.0976 7.68342 42.0976 8.31658 41.7071 8.70711L39.7071 10.7071C39.3166 11.0976 38.6834 11.0976 38.2929 10.7071L37.2929 9.70711C36.9024 9.31658 36.9024 8.68342 37.2929 8.29289C37.6834 7.90237 38.3166 7.90237 38.7071 8.29289L39 8.58579L40.2929 7.29289Z" fill="#414652"/>
    </svg>
    