<svg width="37" height="41" viewBox="0 0 37 41" fill="none" xmlns="http://www.w3.org/2000/svg">
<path d="M36.5706 27.8402L34.6206 24.3702C34.2706 23.7402 33.6006 23.3502 32.8806 23.3502H29.0206C28.3006 23.3502 27.6306 23.7402 27.2806 24.3702L27.0906 24.7102L23.8106 22.8202L24.2806 21.9802C24.6206 21.3802 24.6206 20.6302 24.2806 20.0202L23.8106 19.1802L26.6106 17.5602L27.2806 18.7402C27.6306 19.3702 28.3006 19.7602 29.0206 19.7602H32.8806C33.6006 19.7602 34.2706 19.3702 34.6206 18.7402L36.5706 15.2702C36.9106 14.6702 36.9106 13.9202 36.5706 13.3102L34.6206 9.84023C34.2706 9.21023 33.6006 8.82023 32.8806 8.82023H29.0206C28.3006 8.82023 27.6306 9.21023 27.2806 9.84023L25.3306 13.3102C24.9906 13.9102 24.9906 14.6602 25.3306 15.2702L25.6406 15.8102L22.8406 17.4302L22.3406 16.5402C21.9906 15.9102 21.3206 15.5202 20.6006 15.5202H19.6706V11.9302H20.6006C21.3206 11.9302 21.9906 11.5402 22.3406 10.9102L24.2906 7.44023C24.6306 6.84023 24.6306 6.09023 24.2906 5.48023L22.3406 2.01023C21.9906 1.38023 21.3206 0.990234 20.6006 0.990234H16.7406C16.0206 0.990234 15.3506 1.38023 15.0006 2.01023L13.0506 5.48023C12.7106 6.08023 12.7106 6.83023 13.0506 7.44023L15.0006 10.9102C15.3506 11.5402 16.0206 11.9302 16.7406 11.9302H17.6706V15.5202H16.7406C16.0206 15.5202 15.3506 15.9102 15.0006 16.5402L14.5006 17.4302L11.7006 15.8102L12.0106 15.2702C12.3506 14.6602 12.3506 13.9102 12.0106 13.3102L10.0606 9.84023C9.71062 9.21023 9.04062 8.82023 8.32062 8.82023H4.46063C3.74063 8.82023 3.07062 9.21023 2.72062 9.84023L0.770625 13.3102C0.430625 13.9102 0.430625 14.6602 0.770625 15.2702L2.72062 18.7402C3.07062 19.3702 3.74063 19.7602 4.46063 19.7602H8.32062C9.04062 19.7602 9.71062 19.3702 10.0606 18.7402L10.7306 17.5602L13.5306 19.1802L13.0606 20.0202C12.7206 20.6202 12.7206 21.3702 13.0606 21.9802L13.5306 22.8202L10.2506 24.7102L10.0606 24.3702C9.71062 23.7402 9.04062 23.3502 8.32062 23.3502H4.46063C3.74063 23.3502 3.07062 23.7402 2.72062 24.3702L0.770625 27.8402C0.430625 28.4502 0.430625 29.2002 0.770625 29.8002L2.72062 33.2702C3.07062 33.9002 3.74063 34.2902 4.46063 34.2902H8.32062C9.04062 34.2902 9.71062 33.9002 10.0606 33.2702L12.0106 29.8002C12.3506 29.2002 12.3506 28.4402 12.0106 27.8402L11.2306 26.4502L14.5106 24.5602L15.0106 25.4502C15.3606 26.0802 16.0306 26.4702 16.7506 26.4702H17.6806V30.0602H16.7506C16.0306 30.0602 15.3606 30.4502 15.0106 31.0802L13.0606 34.5502C12.7206 35.1502 12.7206 35.9002 13.0606 36.5102L15.0106 39.9802C15.3606 40.6102 16.0306 41.0002 16.7506 41.0002H20.6106C21.3306 41.0002 22.0006 40.6102 22.3506 39.9802L24.3006 36.5102C24.6406 35.9102 24.6406 35.1602 24.3006 34.5502L22.3506 31.0802C22.0006 30.4502 21.3306 30.0602 20.6106 30.0602H19.6806V26.4702H20.6106C21.3306 26.4702 22.0006 26.0802 22.3506 25.4502L22.8506 24.5602L26.1306 26.4502L25.3506 27.8402C25.0106 28.4502 25.0106 29.2002 25.3506 29.8002L27.3006 33.2702C27.6506 33.9002 28.3206 34.2902 29.0406 34.2902H32.9006C33.6206 34.2902 34.2906 33.9002 34.6406 33.2702L36.5906 29.8002C36.9306 29.2002 36.9306 28.4502 36.5906 27.8402H36.5706ZM29.0106 10.8202H32.8706L34.8206 14.2902L32.8706 17.7602H29.0106L27.0606 14.2902L29.0106 10.8202ZM14.7606 6.47023L16.7106 3.00023H20.5706L22.5206 6.47023L20.5706 9.94023H16.7106L14.7606 6.47023ZM4.42063 17.7602L2.47062 14.2902L4.42063 10.8202H8.28062L10.2306 14.2902L8.28062 17.7602H4.42063ZM8.28062 32.2902H4.42063L2.47062 28.8202L4.42063 25.3502H8.28062L10.2306 28.8202L8.28062 32.2902ZM22.5306 35.5302L20.5806 39.0002H16.7206L14.7706 35.5302L16.7206 32.0602H20.5806L22.5306 35.5302ZM16.7206 24.4702L14.7706 21.0002L16.7206 17.5302H20.5806L21.5806 19.3102L22.5306 21.0002L21.5806 22.6902L20.5806 24.4702H16.7206ZM32.8706 32.2902H29.0106L27.0606 28.8202L28.3206 26.5802L29.0106 25.3502H32.8706L34.8206 28.8202L32.8706 32.2902Z" fill="#414652"/>
</svg>
