<svg xmlns="http://www.w3.org/2000/svg" width="72" height="72"><defs><linearGradient id="a" x1="0%" x2="100%" y1="93.556%" y2="6.444%"><stop offset="0%" stop-color="#FF444F"/><stop offset="100%" stop-color="#FF6444"/></linearGradient></defs><g fill="none" fill-rule="evenodd"><circle cx="36" cy="36" r="36" fill="#F5F7FA"/><path d="M33.75 3a3.75 3.75 0 0 1 3.058 5.922l6.409 12.107a3.751 3.751 0 0 1-.027 7.445l-6.37 10.62A3.75 3.75 0 1 1 30.075 42h-12.15a3.752 3.752 0 1 1-6.96-2.56l-6.17-10.967a3.75 3.75 0 0 1-.012-7.444l6.41-12.107A3.75 3.75 0 1 1 17.925 6h12.15c.347-1.711 1.86-3 3.675-3zm0 36a2.25 2.25 0 1 0 0 4.5 2.25 2.25 0 0 0 0-4.5zm-19.5 0a2.25 2.25 0 1 0 0 4.5 2.25 2.25 0 0 0 0-4.5zM24 28.5c-.493 0-.968-.08-1.412-.226l-6.19 9.902a3.752 3.752 0 0 1 1.527 2.324h12.15a3.752 3.752 0 0 1 1.527-2.324l-6.19-9.902A4.486 4.486 0 0 1 24 28.5zm-4.244-2.999H8.925a3.758 3.758 0 0 1-2.5 2.811l5.587 9.929a3.732 3.732 0 0 1 2.238-.741c.259 0 .511.026.756.076L21.26 27.57a4.518 4.518 0 0 1-1.504-2.069zm19.32 0H28.243a4.51 4.51 0 0 1-1.504 2.069l6.254 10.006a3.772 3.772 0 0 1 2.704.469l5.846-9.743a3.757 3.757 0 0 1-2.469-2.801zM24 21a3 3 0 1 0 0 6 3 3 0 0 0 0-6zm18.75 1.5a2.25 2.25 0 1 0 0 4.5 2.25 2.25 0 0 0 0-4.5zm-37.5 0a2.25 2.25 0 1 0 0 4.5 2.25 2.25 0 0 0 0-4.5zm28.5-12c-.259 0-.511-.026-.756-.076L26.74 20.43A4.494 4.494 0 0 1 28.5 24h10.575a3.754 3.754 0 0 1 2.526-2.82L35.667 9.973a3.734 3.734 0 0 1-1.917.526zm-21.417-.526L6.399 21.179A3.757 3.757 0 0 1 8.925 24H19.5c0-1.492.727-2.815 1.845-3.634L16.153 9.982a3.724 3.724 0 0 1-1.903.518c-.7 0-1.356-.192-1.917-.526zM30.075 7.5h-12.15a3.73 3.73 0 0 1-.622 1.427l5.383 10.767a4.515 4.515 0 0 1 2.726.031l6.19-9.902A3.754 3.754 0 0 1 30.075 7.5zm3.675-3a2.25 2.25 0 1 0 0 4.5 2.25 2.25 0 0 0 0-4.5zm-19.5 0a2.25 2.25 0 1 0 0 4.5 2.25 2.25 0 0 0 0-4.5z" fill="url(#a)" transform="translate(12 12)"/></g></svg>