<svg width="64" height="64" viewBox="0 0 64 64" fill="none" xmlns="http://www.w3.org/2000/svg">
    <path fill-rule="evenodd" clip-rule="evenodd" d="M13 9.3335C13.5523 9.3335 14 9.78121 14 10.3335C14 10.8463 13.614 11.269 13.1166 11.3268L13 11.3335H5C4.48716 11.3335 4.06449 11.7195 4.00673 12.2169L4 12.3335V46.3335H6V16.3333C6 14.7357 7.24892 13.4297 8.82373 13.3384L9 13.3333H13C13.5523 13.3333 14 13.781 14 14.3333C14 14.8462 13.614 15.2688 13.1166 15.3266L13 15.3333H9C8.48716 15.3333 8.06449 15.7194 8.00673 16.2167L8 16.3333V46.3333L24 46.3333V46.4064C24.4566 46.5332 24.8596 46.8201 25.1289 47.2241L25.8684 48.3333H38.1316L38.8711 47.2241C39.1404 46.8201 39.5434 46.5332 40 46.4064V46.3333L56 46.3333V16.3333C56 15.8205 55.614 15.3978 55.1166 15.3401L55 15.3333H51C50.4477 15.3333 50 14.8856 50 14.3333C50 13.8205 50.386 13.3978 50.8834 13.3401L51 13.3333H55C56.5977 13.3333 57.9037 14.5823 57.9949 16.1571L58 16.3333V46.3335H60V12.3335C60 11.8207 59.614 11.398 59.1166 11.3402L59 11.3335H51C50.4477 11.3335 50 10.8858 50 10.3335C50 9.82066 50.386 9.39799 50.8834 9.34022L51 9.3335H59C60.5977 9.3335 61.9037 10.5824 61.9949 12.1572L62 12.3335V46.3335C63.1046 46.3335 64 47.2289 64 48.3335V53.3335C64 54.4381 63.1046 55.3335 62 55.3335H2C0.89543 55.3335 0 54.4381 0 53.3335V48.3335C0 47.2289 0.89543 46.3335 2 46.3335V12.3335C2 10.7358 3.24892 9.42984 4.82373 9.33859L5 9.3335H13ZM2.98213 48.3333H2V53.3333H62V48.3333H61.0027L61 48.3335H40.5351L39.1289 50.4427C38.758 50.9991 38.1335 51.3333 37.4648 51.3333H26.5352C25.8665 51.3333 25.242 50.9991 24.8711 50.4427L23.4649 48.3335H3C2.99403 48.3335 2.98808 48.3334 2.98213 48.3333ZM25.8685 48.3335L26.5352 49.3335H37.4648L38.1315 48.3335H25.8685ZM18 9.3335H27C28.3062 9.3335 29.4174 10.1682 29.8292 11.3333H44C45.5977 11.3333 46.9037 12.5823 46.9949 14.1571L47 14.3333V16.0042C48.1652 16.416 49 17.5273 49 18.8335V35.3335C49 36.9904 47.6569 38.3335 46 38.3335H18C16.3431 38.3335 15 36.9904 15 35.3335V12.3335C15 10.6766 16.3431 9.3335 18 9.3335ZM30 14.8335V13.3333H44L44.1166 13.3401C44.614 13.3978 45 13.8205 45 14.3333V15.8335H31C30.4477 15.8335 30 15.3858 30 14.8335ZM27 11.3333H18C17.4477 11.3333 17 11.781 17 12.3333V35.3333C17 35.8856 17.4477 36.3333 18 36.3333H46C46.5523 36.3333 47 35.8856 47 35.3333V18.8333C47 18.281 46.5523 17.8333 46 17.8333H31C29.3431 17.8333 28 16.4902 28 14.8333V12.3333C28 11.781 27.5523 11.3333 27 11.3333ZM27.6968 22.616C27.3006 22.2312 26.6675 22.2404 26.2827 22.6366L23.2827 25.725L23.2009 25.8205C22.9015 26.2173 22.9376 26.7842 23.3036 27.1394L26.3036 30.0509L26.399 30.1327C26.7958 30.4318 27.3626 30.3956 27.7176 30.0298L27.7994 29.9343C28.0985 29.5375 28.0623 28.9708 27.6965 28.6157L25.414 26.4003L27.7173 24.0301L27.7991 23.9347C28.0984 23.538 28.0624 22.9712 27.6968 22.616ZM37.7173 22.6366C37.3325 22.2404 36.6994 22.2312 36.3032 22.616C35.9376 22.9712 35.9016 23.538 36.2009 23.9347L36.2827 24.0301L38.586 26.4003L36.3036 28.6157C35.9377 28.9708 35.9015 29.5375 36.2006 29.9343L36.2824 30.0298C36.6374 30.3956 37.2042 30.4318 37.601 30.1327L37.6964 30.0509L40.6964 27.1394C41.0624 26.7842 41.0985 26.2173 40.7991 25.8205L40.7173 25.725L37.7173 22.6366ZM33.2941 21.5922C32.7606 21.4492 32.2122 21.7658 32.0693 22.2993L29.9988 30.0267C29.8558 30.5601 30.1724 31.1085 30.7059 31.2514C31.2393 31.3944 31.7877 31.0778 31.9306 30.5443L34.0012 22.8169C34.1441 22.2834 33.8275 21.7351 33.2941 21.5922Z" fill="#414652"/>
</svg>
    
    