<svg width="64" height="64" viewBox="0 0 64 64" fill="none" xmlns="http://www.w3.org/2000/svg">
<path fill-rule="evenodd" clip-rule="evenodd" d="M13 16C13.5523 16 14 16.4477 14 17C14 17.5128 13.614 17.9355 13.1166 17.9933L13 18H5C4.48716 18 4.06449 18.386 4.00673 18.8834L4 19V53H6V23C6 21.4023 7.24892 20.0963 8.82373 20.0051L9 20H13C13.5523 20 14 20.4477 14 21C14 21.5128 13.614 21.9355 13.1166 21.9933L13 22H9C8.48716 22 8.06449 22.386 8.00673 22.8834L8 23V53H23.4648H24V53.0729C24.4566 53.1997 24.8596 53.4866 25.1289 53.8906L26.5352 56H37.4648L38.8711 53.8906C39.1404 53.4866 39.5434 53.1997 40 53.0729V53H40.5352H56V23C56 22.4872 55.614 22.0645 55.1166 22.0067L55 22H51C50.4477 22 50 21.5523 50 21C50 20.4872 50.386 20.0645 50.8834 20.0067L51 20H55C56.5977 20 57.9037 21.2489 57.9949 22.8237L58 23V53H60V19C60 18.4872 59.614 18.0645 59.1166 18.0067L59 18H51C50.4477 18 50 17.5523 50 17C50 16.4872 50.386 16.0645 50.8834 16.0067L51 16H59C60.5977 16 61.9037 17.2489 61.9949 18.8237L62 19V53C63.1046 53 64 53.8954 64 55V60C64 61.1046 63.1046 62 62 62H2C0.89543 62 0 61.1046 0 60V55C0 53.8954 0.89543 53 2 53V19C2 17.4023 3.24892 16.0963 4.82373 16.0051L5 16H13ZM40.5352 55L39.1289 57.1094C38.758 57.6658 38.1335 58 37.4648 58H26.5352C25.8665 58 25.242 57.6658 24.8711 57.1094L23.4648 55H7H3H2V60H62V55H61H57H40.5352ZM18 16H27C28.3062 16 29.4175 16.8348 29.8293 18H44C45.5977 18 46.9037 19.2489 46.9949 20.8237L47 21V22.6707C48.1652 23.0825 49 24.1938 49 25.5V42C49 43.6569 47.6569 45 46 45H18C16.3431 45 15 43.6569 15 42V19C15 17.3431 16.3431 16 18 16ZM30 21.5V20H44L44.1166 20.0067C44.614 20.0645 45 20.4872 45 21V22.5H31C30.4477 22.5 30 22.0523 30 21.5ZM27 18H18C17.4477 18 17 18.4477 17 19V42C17 42.5523 17.4477 43 18 43H46C46.5523 43 47 42.5523 47 42V25.5C47 24.9477 46.5523 24.5 46 24.5H31C29.3431 24.5 28 23.1569 28 21.5V19C28 18.4477 27.5523 18 27 18ZM27.6968 29.2827C27.3006 28.8979 26.6675 28.9071 26.2827 29.3032L23.2827 32.3917L23.2009 32.4871C22.9015 32.8839 22.9376 33.4509 23.3036 33.8061L26.3036 36.7176L26.399 36.7994C26.7958 37.0985 27.3626 37.0623 27.7176 36.6964L27.7994 36.601C28.0985 36.2042 28.0623 35.6374 27.6964 35.2824L25.414 33.067L27.7173 30.6968L27.7991 30.6014C28.0984 30.2047 28.0624 29.6379 27.6968 29.2827ZM37.7173 29.3032C37.3325 28.9071 36.6994 28.8979 36.3032 29.2827C35.9376 29.6379 35.9016 30.2047 36.2009 30.6014L36.2827 30.6968L38.586 33.067L36.3036 35.2824C35.9377 35.6374 35.9015 36.2042 36.2006 36.601L36.2824 36.6964C36.6374 37.0623 37.2042 37.0985 37.601 36.7994L37.6964 36.7176L40.6964 33.8061C41.0624 33.4509 41.0985 32.8839 40.7991 32.4871L40.7173 32.3917L37.7173 29.3032ZM33.2941 28.2588C32.7606 28.1159 32.2123 28.4325 32.0694 28.9659L29.9988 36.6933C29.8559 37.2268 30.1724 37.7751 30.7059 37.9181C31.2394 38.061 31.7877 37.7444 31.9306 37.211L34.0012 29.4836C34.1441 28.9501 33.8276 28.4018 33.2941 28.2588Z" fill="url(#paint0_linear_2105_46918)"/>
<defs>
<linearGradient id="paint0_linear_2105_46918" x1="32" y1="85" x2="75.6008" y2="24.3381" gradientUnits="userSpaceOnUse">
<stop stop-color="#FF444F"/>
<stop offset="1" stop-color="#FF6444"/>
</linearGradient>
</defs>
</svg>
