<svg width="41" height="40" viewBox="0 0 41 40" fill="none" xmlns="http://www.w3.org/2000/svg">
<g clip-path="url(#clip0_2105_46995)">
<path d="M40.5 0H0.5V40H40.5V0Z" fill="#F7DF1E"/>
<path d="M27.3699 31.2501C28.1756 32.5657 29.2238 33.5327 31.0778 33.5327C32.6353 33.5327 33.6302 32.7543 33.6302 31.6787C33.6302 30.3898 32.608 29.9333 30.8937 29.1835L29.954 28.7803C27.2416 27.6247 25.4397 26.1771 25.4397 23.1168C25.4397 20.2978 27.5876 18.1517 30.9445 18.1517C33.3343 18.1517 35.0524 18.9835 36.2905 21.1613L33.3635 23.0406C32.7191 21.8851 32.0238 21.4298 30.9445 21.4298C29.8435 21.4298 29.1457 22.1282 29.1457 23.0406C29.1457 24.1682 29.8442 24.6247 31.4569 25.3232L32.3965 25.7257C35.5902 27.0952 37.3934 28.4914 37.3934 31.6305C37.3934 35.0146 34.7349 36.8686 31.1648 36.8686C27.674 36.8686 25.4188 35.2051 24.3153 33.0247L27.3699 31.2501ZM14.0918 31.5759C14.6823 32.6235 15.2194 33.5092 16.5108 33.5092C17.7458 33.5092 18.5248 33.026 18.5248 31.1473V18.3663H22.2835V31.1981C22.2835 35.0901 20.0016 36.8616 16.6708 36.8616C13.6613 36.8616 11.9185 35.3041 11.0321 33.4282L14.0918 31.5759Z" fill="black"/>
</g>
<defs>
<clipPath id="clip0_2105_46995">
<rect width="40" height="40" fill="white" transform="translate(0.5)"/>
</clipPath>
</defs>
</svg>
