<svg width="80" height="80" viewBox="0 0 80 80" fill="none" xmlns="http://www.w3.org/2000/svg"><path fill-rule="evenodd" clip-rule="evenodd" d="M45.0515 21.8144V24.0412H19.4227V21.8144C19.4227 14.7372 25.1599 9 32.2371 9C39.3143 9 45.0515 14.7372 45.0515 21.8144ZM7 32.0412C7 27.8171 10.2739 24.3576 14.4227 24.0617V21.8144C14.4227 11.9758 22.3985 4 32.2371 4C42.0758 4 50.0515 11.9758 50.0515 21.8144V24.0617C54.2003 24.3576 57.4742 27.8171 57.4742 32.0412V56.1237C57.4742 60.542 53.8925 64.1237 49.4742 64.1237H15C10.5817 64.1237 7 60.542 7 56.1237V32.0412ZM33.7216 44.6096C35.8679 43.9708 37.433 41.9826 37.433 39.6289C37.433 36.7593 35.1067 34.433 32.2371 34.433C29.3675 34.433 27.0412 36.7593 27.0412 39.6289C27.0412 41.9826 28.6063 43.9708 30.7526 44.6096V53.732H33.7216V44.6096Z" fill="#E0F0F0"/><rect x="20.1338" y="60.1855" width="50.1856" height="13.8144" rx="4" fill="#E0F0F0" stroke="#AAC5C8" stroke-width="4"/><path fill-rule="evenodd" clip-rule="evenodd" d="M28.3072 65.5309C28.3072 65.6949 28.4007 65.7343 28.5172 65.6179L29.3206 64.8145C29.4265 64.7086 29.5985 64.7091 29.705 64.8156L30.0605 65.171C30.1668 65.2773 30.1674 65.4496 30.0616 65.5554L29.2582 66.3588C29.1422 66.4748 29.1805 66.5688 29.3452 66.5688H30.4813C30.6311 66.5688 30.7523 66.6908 30.7523 66.8414V67.3441C30.7523 67.4945 30.631 67.6167 30.4813 67.6167H29.3452C29.1812 67.6167 29.1417 67.7102 29.2582 67.8267L30.0616 68.6301C30.1675 68.736 30.1669 68.908 30.0605 69.0145L29.705 69.37C29.5987 69.4763 29.4264 69.4769 29.3206 69.3711L28.5172 68.5677C28.4012 68.4517 28.3072 68.49 28.3072 68.6546V69.7908C28.3072 69.9406 28.1852 70.0618 28.0346 70.0618H27.5319C27.3816 70.0618 27.2593 69.9405 27.2593 69.7908V68.6546C27.2593 68.4906 27.1658 68.4512 27.0493 68.5677L26.2459 69.3711C26.1401 69.477 25.968 69.4764 25.8616 69.37L25.5061 69.0145C25.3998 68.9082 25.3991 68.7359 25.505 68.6301L26.3084 67.8267C26.4243 67.7107 26.3861 67.6167 26.2214 67.6167H25.0852C24.9355 67.6167 24.8142 67.4947 24.8142 67.3441V66.8414C24.8142 66.6911 24.9355 66.5688 25.0852 66.5688H26.2214C26.3854 66.5688 26.4248 66.4753 26.3084 66.3588L25.505 65.5554C25.3991 65.4495 25.3996 65.2775 25.5061 65.171L25.8616 64.8156C25.9679 64.7093 26.1401 64.7086 26.2459 64.8145L27.0493 65.6179C27.1653 65.7338 27.2593 65.6956 27.2593 65.5309V64.3947C27.2593 64.2449 27.3814 64.1237 27.5319 64.1237H28.0346C28.185 64.1237 28.3072 64.245 28.3072 64.3947V65.5309Z" fill="#AAC5C8"/><path fill-rule="evenodd" clip-rule="evenodd" d="M37.2144 65.5309C37.2144 65.6949 37.308 65.7343 37.4244 65.6179L38.2278 64.8145C38.3337 64.7086 38.5057 64.7091 38.6122 64.8156L38.9677 65.171C39.074 65.2773 39.0746 65.4496 38.9688 65.5554L38.1654 66.3588C38.0494 66.4748 38.0877 66.5688 38.2524 66.5688H39.3886C39.5383 66.5688 39.6596 66.6908 39.6596 66.8414V67.3441C39.6596 67.4945 39.5382 67.6167 39.3886 67.6167H38.2524C38.0884 67.6167 38.0489 67.7102 38.1654 67.8267L38.9688 68.6301C39.0747 68.736 39.0741 68.908 38.9677 69.0145L38.6122 69.37C38.5059 69.4763 38.3337 69.4769 38.2278 69.3711L37.4244 68.5677C37.3085 68.4517 37.2144 68.49 37.2144 68.6546V69.7908C37.2144 69.9406 37.0924 70.0618 36.9419 70.0618H36.4391C36.2888 70.0618 36.1665 69.9405 36.1665 69.7908V68.6546C36.1665 68.4906 36.073 68.4512 35.9566 68.5677L35.1532 69.3711C35.0473 69.477 34.8752 69.4764 34.7688 69.37L34.4133 69.0145C34.307 68.9082 34.3063 68.7359 34.4122 68.6301L35.2156 67.8267C35.3315 67.7107 35.2933 67.6167 35.1286 67.6167H33.9924C33.8427 67.6167 33.7214 67.4947 33.7214 67.3441V66.8414C33.7214 66.6911 33.8428 66.5688 33.9924 66.5688H35.1286C35.2926 66.5688 35.332 66.4753 35.2156 66.3588L34.4122 65.5554C34.3063 65.4495 34.3068 65.2775 34.4133 65.171L34.7688 64.8156C34.8751 64.7093 35.0473 64.7086 35.1532 64.8145L35.9566 65.6179C36.0725 65.7338 36.1665 65.6956 36.1665 65.5309V64.3947C36.1665 64.2449 36.2886 64.1237 36.4391 64.1237H36.9419C37.0922 64.1237 37.2144 64.245 37.2144 64.3947V65.5309Z" fill="#AAC5C8"/><path fill-rule="evenodd" clip-rule="evenodd" d="M46.1217 65.5309C46.1217 65.6949 46.2152 65.7343 46.3316 65.6179L47.135 64.8145C47.2409 64.7086 47.413 64.7091 47.5194 64.8156L47.8749 65.171C47.9812 65.2773 47.9818 65.4496 47.876 65.5554L47.0726 66.3588C46.9566 66.4748 46.9949 66.5688 47.1596 66.5688H48.2958C48.4455 66.5688 48.5668 66.6908 48.5668 66.8414V67.3441C48.5668 67.4945 48.4454 67.6167 48.2958 67.6167H47.1596C46.9956 67.6167 46.9562 67.7102 47.0726 67.8267L47.876 68.6301C47.9819 68.736 47.9813 68.908 47.8749 69.0145L47.5194 69.37C47.4131 69.4763 47.2409 69.4769 47.135 69.3711L46.3316 68.5677C46.2157 68.4517 46.1217 68.49 46.1217 68.6546V69.7908C46.1217 69.9406 45.9996 70.0618 45.8491 70.0618H45.3463C45.196 70.0618 45.0737 69.9405 45.0737 69.7908V68.6546C45.0737 68.4906 44.9802 68.4512 44.8638 68.5677L44.0604 69.3711C43.9545 69.477 43.7824 69.4764 43.676 69.37L43.3205 69.0145C43.2142 68.9082 43.2136 68.7359 43.3194 68.6301L44.1228 67.8267C44.2388 67.7107 44.2005 67.6167 44.0358 67.6167H42.8996C42.7499 67.6167 42.6286 67.4947 42.6286 67.3441V66.8414C42.6286 66.6911 42.75 66.5688 42.8996 66.5688H44.0358C44.1998 66.5688 44.2392 66.4753 44.1228 66.3588L43.3194 65.5554C43.2135 65.4495 43.2141 65.2775 43.3205 65.171L43.676 64.8156C43.7823 64.7093 43.9545 64.7086 44.0604 64.8145L44.8638 65.6179C44.9797 65.7338 45.0737 65.6956 45.0737 65.5309V64.3947C45.0737 64.2449 45.1958 64.1237 45.3463 64.1237H45.8491C45.9994 64.1237 46.1217 64.245 46.1217 64.3947V65.5309Z" fill="#AAC5C8"/><path fill-rule="evenodd" clip-rule="evenodd" d="M55.0289 65.5309C55.0289 65.6949 55.1224 65.7343 55.2389 65.6179L56.0423 64.8145C56.1482 64.7086 56.3202 64.7091 56.4266 64.8156L56.7821 65.171C56.8884 65.2773 56.8891 65.4496 56.7832 65.5554L55.9798 66.3588C55.8639 66.4748 55.9021 66.5688 56.0668 66.5688H57.203C57.3527 66.5688 57.474 66.6908 57.474 66.8414V67.3441C57.474 67.4945 57.3527 67.6167 57.203 67.6167H56.0668C55.9028 67.6167 55.8634 67.7102 55.9798 67.8267L56.7832 68.6301C56.8891 68.736 56.8886 68.908 56.7821 69.0145L56.4266 69.37C56.3203 69.4763 56.1481 69.4769 56.0423 69.3711L55.2389 68.5677C55.1229 68.4517 55.0289 68.49 55.0289 68.6546V69.7908C55.0289 69.9406 54.9068 70.0618 54.7563 70.0618H54.2536C54.1032 70.0618 53.981 69.9405 53.981 69.7908V68.6546C53.981 68.4906 53.8875 68.4512 53.771 68.5677L52.9676 69.3711C52.8617 69.477 52.6897 69.4764 52.5832 69.37L52.2277 69.0145C52.1214 68.9082 52.1208 68.7359 52.2266 68.6301L53.03 67.8267C53.146 67.7107 53.1077 67.6167 52.943 67.6167H51.8069C51.6571 67.6167 51.5359 67.4947 51.5359 67.3441V66.8414C51.5359 66.6911 51.6572 66.5688 51.8069 66.5688H52.943C53.107 66.5688 53.1465 66.4753 53.03 66.3588L52.2266 65.5554C52.1207 65.4495 52.1213 65.2775 52.2277 65.171L52.5832 64.8156C52.6895 64.7093 52.8618 64.7086 52.9676 64.8145L53.771 65.6179C53.887 65.7338 53.981 65.6956 53.981 65.5309V64.3947C53.981 64.2449 54.103 64.1237 54.2536 64.1237H54.7563C54.9066 64.1237 55.0289 64.245 55.0289 64.3947V65.5309Z" fill="#AAC5C8"/><path fill-rule="evenodd" clip-rule="evenodd" d="M63.9361 65.5309C63.9361 65.6949 64.0296 65.7343 64.1461 65.6179L64.9495 64.8145C65.0554 64.7086 65.2274 64.7091 65.3339 64.8156L65.6893 65.171C65.7956 65.2773 65.7963 65.4496 65.6904 65.5554L64.887 66.3588C64.7711 66.4748 64.8093 66.5688 64.974 66.5688H66.1102C66.26 66.5688 66.3812 66.6908 66.3812 66.8414V67.3441C66.3812 67.4945 66.2599 67.6167 66.1102 67.6167H64.974C64.81 67.6167 64.7706 67.7102 64.887 67.8267L65.6904 68.6301C65.7963 68.736 65.7958 68.908 65.6893 69.0145L65.3339 69.37C65.2276 69.4763 65.0553 69.4769 64.9495 69.3711L64.1461 68.5677C64.0301 68.4517 63.9361 68.49 63.9361 68.6546V69.7908C63.9361 69.9406 63.8141 70.0618 63.6635 70.0618H63.1608C63.0104 70.0618 62.8882 69.9405 62.8882 69.7908V68.6546C62.8882 68.4906 62.7947 68.4512 62.6782 68.5677L61.8748 69.3711C61.7689 69.477 61.5969 69.4764 61.4904 69.37L61.1349 69.0145C61.0286 68.9082 61.028 68.7359 61.1338 68.6301L61.9372 67.8267C62.0532 67.7107 62.0149 67.6167 61.8503 67.6167H60.7141C60.5643 67.6167 60.4431 67.4947 60.4431 67.3441V66.8414C60.4431 66.6911 60.5644 66.5688 60.7141 66.5688H61.8503C62.0143 66.5688 62.0537 66.4753 61.9372 66.3588L61.1338 65.5554C61.0279 65.4495 61.0285 65.2775 61.1349 65.171L61.4904 64.8156C61.5967 64.7093 61.769 64.7086 61.8748 64.8145L62.6782 65.6179C62.7942 65.7338 62.8882 65.6956 62.8882 65.5309V64.3947C62.8882 64.2449 63.0102 64.1237 63.1608 64.1237H63.6635C63.8138 64.1237 63.9361 64.245 63.9361 64.3947V65.5309Z" fill="#AAC5C8"/></svg>