<svg width="14" height="14" fill="none" xmlns="http://www.w3.org/2000/svg"><path d="M7.5 0a1.5 1.5 0 0 1 1.493 1.356L9 1.5v1a.5.5 0 0 1-.992.09L8 2.5v-1a.5.5 0 0 0-.41-.492L7.5 1h-6a.5.5 0 0 0-.492.41L1 1.5v11a.5.5 0 0 0 .41.492L1.5 13h6a.5.5 0 0 0 .492-.41L8 12.5v-1a.5.5 0 0 1 .992-.09L9 11.5v1a1.5 1.5 0 0 1-1.356 1.493L7.5 14h-6a1.5 1.5 0 0 1-1.493-1.355L0 12.5v-11A1.5 1.5 0 0 1 1.356.007L1.5 0h6Zm3.284 3.589.07.057 3 3 .011.013a.484.484 0 0 1 .033.039l-.044-.052A.505.505 0 0 1 14 7v.02a.51.51 0 0 1-.005.052L14 7a.5.5 0 0 1-.089.284l-.013.018a.484.484 0 0 1-.033.04l-.011.012-3 3a.5.5 0 0 1-.765-.638l.057-.07L12.293 7.5 3.5 7.5a.5.5 0 0 1-.09-.992L3.5 6.5l8.793-.001-2.147-2.145a.5.5 0 0 1-.057-.638l.057-.07a.5.5 0 0 1 .638-.057Z" fill="#414652"/></svg>