<svg width="41" height="40" viewBox="0 0 41 40" fill="none" xmlns="http://www.w3.org/2000/svg">
<g clip-path="url(#clip0_2105_46999)">
<path d="M20.3558 0C10.2013 7.24499e-07 10.8354 4.4036 10.8354 4.4036L10.8468 8.96568H20.5369V10.3354H6.99785C6.99785 10.3354 0.5 9.59852 0.5 19.8445C0.499999 30.0905 6.17147 29.7271 6.17147 29.7271H9.55624V24.9726C9.55624 24.9726 9.37379 19.3011 15.1371 19.3011C20.9005 19.3011 24.7481 19.3011 24.7481 19.3011C24.7481 19.3011 30.1479 19.3884 30.1479 14.0825C30.1479 8.77651 30.1479 5.30922 30.1479 5.30922C30.1479 5.30922 30.9677 0 20.3558 0ZM15.0126 3.0678C15.9767 3.0678 16.756 3.84703 16.756 4.81113C16.756 5.77523 15.9767 6.55445 15.0126 6.55445C14.0485 6.55445 13.2693 5.77523 13.2693 4.81113C13.2693 3.84703 14.0485 3.0678 15.0126 3.0678Z" fill="url(#paint0_linear_2105_46999)"/>
<path d="M20.6441 39.7917C30.7986 39.7917 30.1645 35.3881 30.1645 35.3881L30.1532 30.826H20.463V29.4563H34.0021C34.0021 29.4563 40.5 30.1932 40.5 19.9472C40.5 9.70124 34.8285 10.0646 34.8285 10.0646H31.4437V14.8191C31.4437 14.8191 31.6262 20.4906 25.8628 20.4906C20.0995 20.4906 16.2519 20.4906 16.2519 20.4906C16.2519 20.4906 10.8521 20.4033 10.8521 25.7092C10.8521 31.0152 10.8521 34.4825 10.8521 34.4825C10.8521 34.4825 10.0323 39.7917 20.6441 39.7917ZM25.9873 36.7239C25.0232 36.7239 24.244 35.9447 24.244 34.9806C24.244 34.0165 25.0232 33.2372 25.9873 33.2372C26.9514 33.2372 27.7307 34.0165 27.7307 34.9806C27.7307 35.9447 26.9514 36.7239 25.9873 36.7239Z" fill="url(#paint1_linear_2105_46999)"/>
</g>
<defs>
<linearGradient id="paint0_linear_2105_46999" x1="4.34408" y1="3.47815" x2="24.1229" y2="23.3231" gradientUnits="userSpaceOnUse">
<stop stop-color="#387EB8"/>
<stop offset="1" stop-color="#366994"/>
</linearGradient>
<linearGradient id="paint1_linear_2105_46999" x1="16.5111" y1="16.1026" x2="37.7537" y2="36.4541" gradientUnits="userSpaceOnUse">
<stop stop-color="#FFE052"/>
<stop offset="1" stop-color="#FFC331"/>
</linearGradient>
<clipPath id="clip0_2105_46999">
<rect width="40" height="40" fill="white" transform="translate(0.5)"/>
</clipPath>
</defs>
</svg>