<svg xmlns="http://www.w3.org/2000/svg" width="29" height="32"><g fill="none" fill-rule="evenodd"><path fill="#FF6444" fill-rule="nonzero" d="M25.038 0a3 3 0 0 1 2.995 2.824l.005.176v24a1 1 0 0 1-1.993.117L26.038 27V4a2 2 0 0 0-2-2H5A1 1 0 0 1 4.883.007L5 0h20.038z"/><path fill="#FF6444" fill-rule="nonzero" d="M2 4h15.082l3.22 3.457c.027.029.054.056.082.083L24 10.992V30a2 2 0 0 1-2 2H2a2 2 0 0 1-2-2V6a2 2 0 0 1 2-2z"/><path fill="#000" d="M17 4v5a2 2 0 0 0 2 2h5l-7-7z"/><circle cx="17.5" cy="24.5" r="3.5" fill="#FFF" fill-opacity=".56"/><path fill="#FFF" fill-opacity=".56" d="m8.394 20.789 2.882 5.764A1 1 0 0 1 10.382 28H4.618a1 1 0 0 1-.894-1.447l2.882-5.764a1 1 0 0 1 1.788 0z"/></g></svg>