<svg width="48" height="48" viewBox="0 0 48 48" fill="none" xmlns="http://www.w3.org/2000/svg">
    <path fill-rule="evenodd" clip-rule="evenodd" d="M14 6C12.3431 6 11 7.34315 11 9V39C11 40.6569 12.3431 42 14 42H34C35.6569 42 37 40.6569 37 39V9C37 7.34315 35.6569 6 34 6H14ZM9 9C9 6.23858 11.2386 4 14 4H34C36.7614 4 39 6.23858 39 9V39C39 41.7614 36.7614 44 34 44H14C11.2386 44 9 41.7614 9 39V9Z" fill="#414652"/>
    <path fill-rule="evenodd" clip-rule="evenodd" d="M25 10C25 9.44772 25.4477 9 26 9H33C33.5523 9 34 9.44772 34 10C34 10.5523 33.5523 11 33 11H26C25.4477 11 25 10.5523 25 10Z" fill="#414652"/>
    <path fill-rule="evenodd" clip-rule="evenodd" d="M25 14C25 13.4477 25.4477 13 26 13H34C34.5523 13 35 13.4477 35 14C35 14.5523 34.5523 15 34 15H26C25.4477 15 25 14.5523 25 14Z" fill="#414652"/>
    <path fill-rule="evenodd" clip-rule="evenodd" d="M25 18C25 17.4477 25.4477 17 26 17H32C32.5523 17 33 17.4477 33 18C33 18.5523 32.5523 19 32 19H26C25.4477 19 25 18.5523 25 18Z" fill="#414652"/>
    <path fill-rule="evenodd" clip-rule="evenodd" d="M25 22C25 21.4477 25.4477 21 26 21H33C33.5523 21 34 21.4477 34 22C34 22.5523 33.5523 23 33 23H26C25.4477 23 25 22.5523 25 22Z" fill="#414652"/>
    <path fill-rule="evenodd" clip-rule="evenodd" d="M18 10C17.2655 10 16.67 10.5955 16.67 11.33C16.67 12.0645 17.2655 12.66 18 12.66C18.7345 12.66 19.33 12.0645 19.33 11.33C19.33 10.5955 18.7345 10 18 10ZM14.67 11.33C14.67 9.49089 16.1609 8 18 8C19.8391 8 21.33 9.49089 21.33 11.33C21.33 13.1691 19.8391 14.66 18 14.66C16.1609 14.66 14.67 13.1691 14.67 11.33Z" fill="#414652"/>
    <path fill-rule="evenodd" clip-rule="evenodd" d="M16.01 18.33C15.4623 18.33 15.01 18.7823 15.01 19.33V21.33C15.01 21.5126 15.1572 21.66 15.34 21.66H20.67C20.8526 21.66 21 21.5128 21 21.33V19.33C21 18.7823 20.5477 18.33 20 18.33C19.4477 18.33 19 17.8823 19 17.33C19 16.7777 19.4477 16.33 20 16.33C21.6523 16.33 23 17.6777 23 19.33V21.33C23 22.6272 21.9474 23.66 20.67 23.66H15.34C14.0428 23.66 13.01 22.6074 13.01 21.33V19.33C13.01 17.6777 14.3577 16.33 16.01 16.33C16.5623 16.33 17.01 16.7777 17.01 17.33C17.01 17.8823 16.5623 18.33 16.01 18.33Z" fill="#414652"/>
    <path fill-rule="evenodd" clip-rule="evenodd" d="M30.0761 35.6173C30.2309 35.2436 30.5955 35 31 35H34C34.5523 35 35 35.4477 35 36C35 36.5523 34.5523 37 34 37H33.4142L34.7071 38.2929C35.0976 38.6834 35.0976 39.3166 34.7071 39.7071C34.3166 40.0976 33.6834 40.0976 33.2929 39.7071L30.2929 36.7071C30.0069 36.4211 29.9213 35.991 30.0761 35.6173Z" fill="#414652"/>
    <path fill-rule="evenodd" clip-rule="evenodd" d="M31 35C31.5523 35 32 35.4477 32 36V39C32 39.5523 31.5523 40 31 40C30.4477 40 30 39.5523 30 39V36C30 35.4477 30.4477 35 31 35Z" fill="#414652"/>
    <path fill-rule="evenodd" clip-rule="evenodd" d="M31 30C31.5523 30 32 30.4477 32 31V32C32 32.5523 31.5523 33 31 33C30.4477 33 30 32.5523 30 32V31C30 30.4477 30.4477 30 31 30Z" fill="#414652"/>
    <path fill-rule="evenodd" clip-rule="evenodd" d="M26.2929 31.2929C26.6834 30.9024 27.3166 30.9024 27.7071 31.2929L28.7071 32.2929C29.0976 32.6834 29.0976 33.3166 28.7071 33.7071C28.3166 34.0976 27.6834 34.0976 27.2929 33.7071L26.2929 32.7071C25.9024 32.3166 25.9024 31.6834 26.2929 31.2929Z" fill="#414652"/>
    <path fill-rule="evenodd" clip-rule="evenodd" d="M25 36C25 35.4477 25.4477 35 26 35H27C27.5523 35 28 35.4477 28 36C28 36.5523 27.5523 37 27 37H26C25.4477 37 25 36.5523 25 36Z" fill="#414652"/>
    <path fill-rule="evenodd" clip-rule="evenodd" d="M16 28C15.4523 28 15 28.4523 15 29V37C15 37.5477 15.4523 38 16 38H23C23.5523 38 24 38.4477 24 39C24 39.5523 23.5523 40 23 40H16C14.3477 40 13 38.6523 13 37V29C13 27.3477 14.3477 26 16 26H32C32.5523 26 33 26.4477 33 27C33 27.5523 32.5523 28 32 28H16Z" fill="#414652"/>
</svg>
    