<svg xmlns="http://www.w3.org/2000/svg" width="32" height="32"><g fill="none" fill-rule="evenodd"><path d="M0 0h32v32H0z"/><path fill="#000" fill-rule="nonzero" d="M16 0c1.177 0 2.206.536 2.756 1.333H22a1 1 0 0 1 1 1V7a1 1 0 0 1-1 1H10a1 1 0 0 1-1-1V2.333a1 1 0 0 1 1-1h3.244C13.794.536 14.823 0 16 0z"/><rect width="28" height="28" x="2" y="4" fill="#FF444F" fill-rule="nonzero" rx="1"/><path fill="#FFF" fill-opacity=".56" d="M9 18a2 2 0 1 1 .001 3.999A2 2 0 0 1 9 18zm15 0a1 1 0 0 1 1 1v2a1 1 0 0 1-1 1H14a1 1 0 0 1-1-1v-2a1 1 0 0 1 1-1h10zM9 10a2 2 0 1 1 .001 3.999A2 2 0 0 1 9 10zm15 0a1 1 0 0 1 1 1v2a1 1 0 0 1-1 1H14a1 1 0 0 1-1-1v-2a1 1 0 0 1 1-1h10z"/></g></svg>