<svg width="40" height="41" viewBox="0 0 40 41" fill="none" xmlns="http://www.w3.org/2000/svg">
<g clip-path="url(#clip0_3224_61047)">
<path d="M8.56691 26.1633C8.56691 28.4626 6.70865 30.3208 4.40943 30.3208C2.11022 30.3208 0.251953 28.4626 0.251953 26.1633C0.251953 23.8641 2.11022 22.0059 4.40943 22.0059H8.56691V26.1633ZM10.6457 26.1633C10.6457 23.8641 12.5039 22.0059 14.8031 22.0059C17.1023 22.0059 18.9606 23.8641 18.9606 26.1633V36.557C18.9606 38.8563 17.1023 40.7145 14.8031 40.7145C12.5039 40.7145 10.6457 38.8563 10.6457 36.557V26.1633Z" fill="white"/>
<path d="M14.8034 9.47023C12.5042 9.47023 10.6459 7.61197 10.6459 5.31275C10.6459 3.01354 12.5042 1.15527 14.8034 1.15527C17.1026 1.15527 18.9609 3.01354 18.9609 5.31275V9.47023H14.8034ZM14.8034 11.5805C17.1026 11.5805 18.9609 13.4387 18.9609 15.738C18.9609 18.0372 17.1026 19.8954 14.8034 19.8954H4.37818C2.07897 19.8954 0.220703 18.0372 0.220703 15.738C0.220703 13.4387 2.07897 11.5805 4.37818 11.5805H14.8034Z" fill="white"/>
<path d="M31.464 15.738C31.464 13.4387 33.3223 11.5805 35.6215 11.5805C37.9207 11.5805 39.779 13.4387 39.779 15.738C39.779 18.0372 37.9207 19.8954 35.6215 19.8954H31.464V15.738ZM29.3853 15.738C29.3853 18.0372 27.527 19.8954 25.2278 19.8954C22.9286 19.8954 21.0703 18.0372 21.0703 15.738V5.31275C21.0703 3.01354 22.9286 1.15527 25.2278 1.15527C27.527 1.15527 29.3853 3.01354 29.3853 5.31275V15.738Z" fill="white"/>
<path d="M25.2278 32.3996C27.527 32.3996 29.3853 34.2578 29.3853 36.557C29.3853 38.8563 27.527 40.7145 25.2278 40.7145C22.9286 40.7145 21.0703 38.8563 21.0703 36.557V32.3996H25.2278ZM25.2278 30.3208C22.9286 30.3208 21.0703 28.4626 21.0703 26.1633C21.0703 23.8641 22.9286 22.0059 25.2278 22.0059H35.653C37.9522 22.0059 39.8105 23.8641 39.8105 26.1633C39.8105 28.4626 37.9522 30.3208 35.653 30.3208H25.2278Z" fill="white"/>
</g>
<defs>
<clipPath id="clip0_3224_61047">
<rect width="40" height="40" fill="white" transform="translate(0 0.966797)"/>
</clipPath>
</defs>
</svg>
