<svg width="100" height="100" viewBox="0 0 100 100" fill="none" xmlns="http://www.w3.org/2000/svg">
<path fill-rule="evenodd" clip-rule="evenodd" d="M100 50C100 77.6125 77.6125 100 50 100C22.3875 100 0 77.6125 0 50C0 22.3875 22.3875 0 50 0C77.6125 0 100 22.3875 100 50ZM37.3475 65.1431C36.6475 65.1431 35.9412 65.0494 35.2537 64.8806C33.0538 64.3244 31.2162 62.9431 30.06 61.0056C29.6912 60.3931 29.4163 59.7494 29.2163 59.0744C33.885 59.6994 39.2663 60.5181 44.2788 61.5244C42.7287 63.7369 40.1725 65.1431 37.3475 65.1431ZM70.1162 21.8744C67.4725 21.8744 65.235 23.9181 65.235 26.4306V28.4306C62.7038 30.8681 56.6287 35.0181 46.4912 37.9869C39.51 40.0369 27.3412 41.2056 25.1225 41.3994C25.01 41.2556 24.9288 41.1119 24.785 40.9806C24.135 40.3494 23.2725 39.9994 22.3225 39.9994C20.41 39.9994 18.8538 41.4744 18.8412 43.2869L18.7473 56.9056C18.7413 57.7869 19.1038 58.6619 19.76 59.2869C20.4163 59.9244 21.2913 60.3181 22.2225 60.3181H22.2412C23.1975 60.3181 24.0725 59.9056 24.7038 59.3056C24.8913 60.9869 25.46 62.5994 26.385 64.0869C28.0912 66.8119 30.8038 68.7244 34.035 69.5056C35.0412 69.7431 36.0725 69.8681 37.1038 69.8681C42.1725 69.8681 46.5287 66.9619 48.4475 62.6244C57.3975 65.5369 62.7037 69.3056 65.2287 71.5681V73.5744C65.2287 76.0806 67.4725 78.1244 70.1162 78.1244C72.7538 78.1244 74.9975 76.0806 74.9975 73.5744V26.4306C74.9975 23.9181 72.7538 21.8744 70.1162 21.8744Z" fill="#4BB4B3"/>
</svg>
