<svg width="101" height="100" viewBox="0 0 101 100" fill="none" xmlns="http://www.w3.org/2000/svg">
<g clip-path="url(#clip0_1786_47172)">
<path d="M72.9997 64C69.9675 64 67.5 66.468 67.5 69.5C67.5 72.5327 69.9675 75 72.9997 75C76.0325 75 78.5 72.5327 78.5 69.5C78.5 66.468 76.0325 64 72.9997 64Z" fill="#3F6FE5"/>
<path fill-rule="evenodd" clip-rule="evenodd" d="M50.5 100C78.1144 100 100.5 77.6144 100.5 50C100.5 22.3857 78.1144 0 50.5 0C22.8857 0 0.5 22.3857 0.5 50C0.5 77.6144 22.8857 100 50.5 100ZM27.2429 41.2793H73.755V54.4318C75.8569 54.6407 77.8269 55.2974 79.5688 56.3051V35.4652C79.5688 29.0433 74.3625 23.8373 67.9406 23.8373H33.0569C26.635 23.8373 21.4289 29.0433 21.4289 35.4652V64.535C21.4289 70.9569 26.635 76.1631 33.0569 76.1631H59.7102C58.7025 74.4213 58.0459 72.4513 57.8371 70.3494H33.0569C29.8459 70.3494 27.2429 67.7462 27.2429 64.535V41.2793ZM83.9269 68.8756V68.8913C83.9269 69.3 83.8994 69.7144 83.8481 70.1594L82.7762 70.5169L81.8287 70.8381L81.535 71.7919C81.3681 72.3425 81.1475 72.8788 80.8781 73.3869L80.4112 74.2681L81.3625 76.1669C81.0837 76.5181 80.8081 76.83 80.5206 77.1175L80.5144 77.1231C80.2331 77.4081 79.9213 77.6838 79.57 77.9588L77.6775 77.0113L76.7994 77.4688C76.2819 77.7381 75.7369 77.9619 75.1825 78.1375L74.235 78.4344L73.9263 79.3731L73.5687 80.445C73.1269 80.4994 72.7087 80.5237 72.3 80.5237C71.8944 80.5237 71.4769 80.4962 71.0319 80.445L70.6744 79.3731L70.3625 78.425L69.4088 78.1319C68.8456 77.9587 68.31 77.7381 67.8131 77.4744L66.9294 77.0144L65.0275 77.9619C64.6762 77.6837 64.3644 77.4081 64.0769 77.1206C63.7831 76.8269 63.5075 76.515 63.235 76.1694L64.18 74.2775L63.72 73.3994C63.4444 72.8725 63.22 72.3337 63.0569 71.7944L62.7629 70.8406L60.7465 70.1719C60.692 69.73 60.6677 69.3119 60.6677 68.9031C60.6677 68.4944 60.695 68.0794 60.7465 67.6344L62.7569 66.9656L63.0506 66.0144C63.22 65.4669 63.4444 64.925 63.7137 64.4037L64.1738 63.5256L63.2294 61.6306C63.7594 60.9705 64.3619 60.368 65.0219 59.8381L66.9169 60.7858L67.7981 60.3226C68.3069 60.0561 68.8488 59.8321 69.4088 59.6564L70.3563 59.3597L71.0288 57.3463C71.4856 57.2948 71.9006 57.2676 72.2944 57.2676C72.7 57.2676 73.1175 57.2948 73.56 57.3463L74.2319 59.3537L75.1794 59.6474C75.7306 59.8199 76.2725 60.044 76.7906 60.3104L77.6688 60.7707L79.5606 59.823C80.2206 60.3528 80.8262 60.9554 81.3625 61.6184L80.4175 63.5106L80.8719 64.3856C81.1412 64.9062 81.3681 65.4512 81.5406 66.0056L81.8375 66.9531L83.8512 67.6256C83.9087 68.0794 83.9325 68.4881 83.9269 68.8756Z" fill="#3F6FE5"/>
</g>
<defs>
<clipPath id="clip0_1786_47172">
<rect width="100" height="100" fill="white" transform="translate(0.5)"/>
</clipPath>
</defs>
</svg>
