<svg width="40" height="41" viewBox="0 0 40 41" fill="none" xmlns="http://www.w3.org/2000/svg">
<path d="M39.3957 4.64684C38.9537 4.28772 38.2754 4.21099 37.9684 4.21713C36.5842 4.24168 34.4571 4.9814 24.23 9.23554C20.645 10.7242 13.4872 13.8089 2.75063 18.4866C1.00723 19.1803 0.0925636 19.8586 0.00969094 20.5216C-0.13069 21.6419 1.26995 22.0832 3.17992 22.6849C3.44149 22.7673 3.71262 22.8527 3.99065 22.9433C5.87217 23.5541 8.40132 24.2693 9.715 24.2938C10.909 24.3245 12.238 23.8334 13.7113 22.8205C23.742 16.0526 28.92 12.6272 29.2453 12.5535C29.4755 12.5013 29.7947 12.4369 30.0096 12.6272C30.2245 12.8175 30.203 13.1797 30.1815 13.2779C30.0413 13.869 24.5476 18.9777 21.6924 21.6328C20.7968 22.4657 20.1608 23.0571 20.0311 23.1919C19.7435 23.4902 19.4505 23.7724 19.1687 24.0438C17.4204 25.7276 16.1069 26.9926 19.2392 29.0544C20.7457 30.0479 21.9509 30.8691 23.1539 31.6886C24.4632 32.5806 25.7697 33.4707 27.459 34.5793C27.8914 34.8625 28.3044 35.1568 28.7066 35.4434C30.231 36.5298 31.6004 37.5057 33.2907 37.3478C34.276 37.2588 35.292 36.335 35.8076 33.5725C37.0292 27.0501 39.4295 12.9188 39.9819 7.09312C40.0311 6.58361 39.9697 5.92983 39.9206 5.64438C39.8767 5.25787 39.6894 4.90189 39.3957 4.64684Z" fill="white"/>
</svg>
