<svg width="33" height="32" viewBox="0 0 33 32" fill="none" xmlns="http://www.w3.org/2000/svg">
<rect x="0.515625" width="32" height="32" rx="16" fill="#53AE94"/>
<path d="M18.4903 13.868V11.4879H23.9332V7.86133H9.11206V11.4879H14.5556V13.8661C10.1316 14.0693 6.80518 14.9455 6.80518 15.9951C6.80518 17.0447 10.1332 17.9208 14.5556 18.1253V25.7493H18.4916V18.1247C22.9076 17.9208 26.2273 17.0453 26.2273 15.9967C26.2273 14.948 22.9076 14.0725 18.4916 13.8687L18.4903 13.868ZM18.4916 17.4789V17.477C18.3805 17.484 17.81 17.5183 16.5396 17.5183C15.5239 17.5183 14.8093 17.4895 14.5575 17.4764V17.4796C10.649 17.3064 7.73158 16.6258 7.73158 15.8114C7.73158 14.997 10.6493 14.3173 14.5575 14.1439V16.8015C14.8135 16.8191 15.5457 16.8623 16.5562 16.8623C17.77 16.8623 18.3802 16.8117 18.4922 16.8015V14.1439C22.393 14.3176 25.3037 14.9989 25.3037 15.8104C25.3037 16.622 22.3917 17.3036 18.4922 17.4773" fill="white"/>
</svg>
