<svg width="33" height="32" viewBox="0 0 33 32" fill="none" xmlns="http://www.w3.org/2000/svg">
<rect x="0.515625" width="32" height="32" rx="16" fill="#2775CA"/>
<path d="M7.18218 12.7336C5.24874 17.867 7.91546 23.667 13.1155 25.5336C13.3155 25.667 13.5155 25.9336 13.5155 26.1336V27.067C13.5155 27.2003 13.5155 27.267 13.4487 27.3336C13.3822 27.6003 13.1155 27.7336 12.8487 27.6003C9.11546 26.4003 6.24874 23.5336 5.04874 19.8003C3.04874 13.467 6.51546 6.73355 12.8487 4.73355C12.9155 4.66699 13.0487 4.66699 13.1155 4.66699C13.3822 4.73355 13.5155 4.93355 13.5155 5.20027V6.13355C13.5155 6.46699 13.3822 6.66699 13.1155 6.80027C10.3822 7.80027 8.18218 9.93355 7.18218 12.7336Z" fill="white"/>
<path d="M19.5822 5.00027C19.6487 4.73355 19.9155 4.60027 20.1822 4.73355C23.8487 5.93355 26.7822 8.80027 27.9822 12.6003C29.9822 18.9336 26.5155 25.667 20.1822 27.667C20.1155 27.7336 19.9822 27.7336 19.9155 27.7336C19.6487 27.667 19.5155 27.467 19.5155 27.2003V26.267C19.5155 25.9336 19.6487 25.7336 19.9155 25.6003C22.6487 24.6003 24.8487 22.467 25.8487 19.667C27.7822 14.5336 25.1155 8.73355 19.9155 6.86699C19.7155 6.73355 19.5155 6.46699 19.5155 6.20027V5.26699C19.5155 5.13355 19.5155 5.06699 19.5822 5.00027Z" fill="white"/>
<path d="M16.7155 15.067C19.5155 15.4003 20.9155 16.2003 20.9155 18.5336C20.9155 20.3336 19.5822 21.7336 17.5822 22.067V23.667C17.5155 24.0003 17.3155 24.2003 17.0487 24.2003H16.0487C15.7155 24.1336 15.5155 23.9336 15.5155 23.667V22.067C13.3155 21.7336 12.2487 20.5336 11.9822 18.867V18.8003C11.9822 18.5336 12.1822 18.3336 12.4487 18.3336H13.5822C13.7822 18.3336 13.9822 18.467 14.0487 18.7336C14.2487 19.7336 14.8487 20.467 16.5822 20.467C17.8487 20.467 18.7822 19.7337 18.7822 18.667C18.7822 17.6003 18.1822 17.2003 16.3155 16.867C13.5155 16.5336 12.1822 15.667 12.1822 13.467C12.1822 11.8003 13.4487 10.467 15.4487 10.2003V8.66699C15.5155 8.33355 15.7155 8.13355 15.9822 8.13355H16.9822C17.3155 8.20027 17.5155 8.40027 17.5155 8.66699V10.267C19.0487 10.4003 20.2487 11.5336 20.5155 13.0003V13.067C20.5155 13.3336 20.3155 13.5336 20.0487 13.5336H18.9822C18.7822 13.5336 18.5822 13.4003 18.5155 13.2003C18.1822 12.2003 17.5155 11.8003 16.3155 11.8003C14.9822 11.8003 14.3155 12.4001 14.3155 13.3336C14.3155 14.267 14.7155 14.8003 16.7155 15.067Z" fill="white"/>
</svg>
