<svg width="32" height="32" fill="none" xmlns="http://www.w3.org/2000/svg"><rect width="32" height="32" rx="16" fill="#fff"/><path fill-rule="evenodd" clip-rule="evenodd" d="M15.323 0a15.92 15.92 0 0 0-8.297 2.903H25.49A15.922 15.922 0 0 0 17.193 0H15.323ZM3.898 5.806A15.971 15.971 0 0 0 2 8.709H30.517a15.962 15.962 0 0 0-1.898-2.903H3.898ZM.066 14.544c.087-.997.267-1.967.53-2.903h30.786c.263.936.443 1.906.53 2.903H.066Zm.006 2.904c.093.997.28 1.967.547 2.902h30.74a15.82 15.82 0 0 0 .547-2.902H.072Zm3.624 8.708a15.981 15.981 0 0 1-1.924-2.903H30.206a15.973 15.973 0 0 1-1.924 2.903H3.696Zm11.616 5.789.049.002.048.002a15.751 15.751 0 0 0 9.697-2.889H6.872a15.75 15.75 0 0 0 8.44 2.885Z" fill="#F44336"/><path d="M15.659.008C7.464.175.787 6.501.069 14.548h15.59V.008Z" fill="#283991"/><path d="m3.2 9.04.243.748h.79l-.64.463.244.75-.638-.464-.638.463.244-.749-.639-.463h.79l.243-.748ZM3.2 11.684l.243.75h.79l-.64.462.244.749-.638-.463-.638.463.244-.749-.639-.463h.79l.243-.749ZM5.85 5.073l.243.748h.79l-.64.463.245.749-.638-.463-.639.463.244-.749-.639-.463h.79l.244-.748ZM5.85 7.717l.243.75h.79l-.64.462.245.749-.638-.463-.639.463.244-.75-.639-.462h.79l.244-.749ZM5.85 10.362l.243.75h.79l-.64.461.245.75-.638-.464-.639.463.244-.749-.639-.462h.79l.244-.749ZM1.187 12.322l-.244-.749.639-.462h-.79l-.017-.055c-.087.268-.165.538-.237.812l.011-.009.638.463ZM2.561 8.355l.638-.463.639.463-.244-.749.638-.463h-.79L3.2 6.395l-.244.748h-.29l-.16.247.3.216-.244.75ZM5.85 3.926l.638.462-.244-.748.638-.463h-.456c-.387.288-.76.594-1.119.916l-.096.295.639-.462ZM7.862 3.066l.638-.463.638.463-.244-.749.638-.463h-.789l-.033-.1c-.267.136-.532.278-.79.429l.185.134-.243.749ZM8.5 3.75l.244.749h.788l-.638.463.244.749-.638-.463-.638.463.243-.75-.638-.462h.789L8.5 3.75ZM8.5 6.395l.244.748h.788l-.638.463.244.75-.638-.464-.638.463.243-.749-.638-.463h.789l.244-.748ZM8.5 9.04l.244.748h.788l-.638.463.244.75-.638-.464-.638.463.243-.749-.638-.463h.789L8.5 9.04ZM8.5 11.684l.244.75h.788l-.638.462.244.749-.638-.463-.638.463.243-.749-.638-.463h.789l.244-.749ZM11.15 2.428l.244.749h.789l-.638.463.243.748-.638-.462-.638.462.244-.748-.639-.463h.79l.243-.75ZM11.15 5.073l.244.748h.789l-.638.463.243.749-.638-.463-.638.463.244-.749-.639-.463h.79l.243-.748ZM11.15 7.717l.244.75h.789l-.638.462.243.749-.638-.463-.638.463.244-.75-.639-.462h.79l.243-.749ZM11.15 10.362l.244.75h.789l-.638.461.243.75-.638-.464-.638.463.244-.749-.639-.462h.79l.243-.749ZM13.8 1.106l.244.748h.79l-.64.463.244.749-.637-.463-.639.463.244-.749-.639-.463h.79l.244-.748ZM13.8 3.75l.244.749h.79l-.64.463.244.749-.637-.463-.639.463.244-.75-.639-.462h.79l.244-.749ZM13.8 6.395l.244.748h.79l-.64.463.244.75-.637-.464-.639.463.244-.749-.639-.463h.79l.244-.748ZM13.8 9.04l.244.748h.79l-.64.463.244.75-.637-.464-.639.463.244-.749-.639-.463h.79l.244-.748ZM13.8 11.684l.244.75h.79l-.64.462.244.749-.637-.463-.639.463.244-.749-.639-.463h.79l.244-.749Z" fill="#EFEFEF"/></svg>